<svg xmlns="http://www.w3.org/2000/svg" width="16" height="16" viewBox="0 0 16 16">
  <path id="icon" d="M15.86,3.637a.625.625,0,0,0-.485-.231H4.054L4.008,2.98l0-.014A3.42,3.42,0,0,0,.625,0a.625.625,0,0,0,0,1.25A2.166,2.166,0,0,1,2.766,3.123l.743,6.825a1.878,1.878,0,0,0-1.1,1.708c0,.005,0,.01,0,.016s0,.01,0,.016a1.877,1.877,0,0,0,1.875,1.875h.254a1.844,1.844,0,1,0,3.491,0h2.7a1.844,1.844,0,1,0,1.746-1.25H4.281a.626.626,0,0,1-.625-.625c0-.005,0-.01,0-.016s0-.01,0-.016a.626.626,0,0,1,.625-.625H12.26a2.862,2.862,0,0,0,2.594-1.749.625.625,0,0,0-1.145-.5,1.634,1.634,0,0,1-1.449,1H4.748L4.19,4.656H14.606L14.3,6.122a.625.625,0,1,0,1.224.255l.463-2.219A.625.625,0,0,0,15.86,3.637Zm-3.391,9.926a.594.594,0,1,1-.594.594A.594.594,0,0,1,12.469,13.563Zm-6.188,0a.594.594,0,1,1-.594.594A.594.594,0,0,1,6.281,13.563Z" fill="#b2b2b2"/>
</svg>
