<svg xmlns="http://www.w3.org/2000/svg" width="24" height="24" viewBox="0 0 24 24">
  <path id="icon" d="M23.79,5.456a.937.937,0,0,0-.727-.346H6.081l-.07-.639,0-.021A5.129,5.129,0,0,0,.937,0a.938.938,0,0,0,0,1.875A3.249,3.249,0,0,1,4.149,4.684L5.263,14.922a2.817,2.817,0,0,0-1.654,2.563c0,.008,0,.016,0,.023s0,.016,0,.023a2.816,2.816,0,0,0,2.812,2.813H6.8a2.766,2.766,0,1,0,5.237,0h4.044A2.766,2.766,0,1,0,18.7,18.469H6.422a.939.939,0,0,1-.937-.938c0-.008,0-.016,0-.023s0-.016,0-.023a.939.939,0,0,1,.938-.937H18.391a4.293,4.293,0,0,0,3.891-2.623.938.938,0,0,0-1.717-.754,2.451,2.451,0,0,1-2.174,1.5H7.122L6.285,6.984H21.909l-.459,2.2a.937.937,0,1,0,1.835.383l.694-3.328A.937.937,0,0,0,23.79,5.456ZM18.7,20.344a.891.891,0,1,1-.891.891A.892.892,0,0,1,18.7,20.344Zm-9.281,0a.891.891,0,1,1-.891.891A.892.892,0,0,1,9.422,20.344Z" fill="#fff"/>
</svg>
