<svg xmlns="http://www.w3.org/2000/svg" width="16.311" height="16.3" viewBox="0 0 16.311 16.3">
  <g id="chat_2_" data-name="chat (2)" transform="translate(0.16 0.15)">
    <g id="Group_42" data-name="Group 42" transform="translate(0)">
      <path id="Path_753" data-name="Path 753" d="M13.637,2.141A8.308,8.308,0,0,0,8,0,8.308,8.308,0,0,0,2.363,2.141,7.049,7.049,0,0,0,0,7.375,6.912,6.912,0,0,0,1.465,11.63L.046,15.141a.625.625,0,0,0,.832.806L4.9,14.175a8.63,8.63,0,0,0,6.959-.336.625.625,0,1,0-.566-1.115,7.374,7.374,0,0,1-6.157.2.625.625,0,0,0-.5,0L1.782,14.182l.98-2.425a.625.625,0,0,0-.1-.64A5.713,5.713,0,0,1,1.25,7.375C1.25,4,4.278,1.25,8,1.25S14.75,4,14.75,7.375a5.7,5.7,0,0,1-1.044,3.272.625.625,0,0,0,1.025.716A6.94,6.94,0,0,0,16,7.375,7.049,7.049,0,0,0,13.637,2.141Z" transform="translate(0)" fill="#fff" stroke="#fff" stroke-width="0.3"/>
    </g>
  </g>
</svg>
