<svg xmlns="http://www.w3.org/2000/svg" width="54" height="50" viewBox="0 0 54 50">
  <g id="connect" transform="translate(0 0.32)">
    <path id="Path_794" data-name="Path 794" d="M179.479,205.7h-.021a1.067,1.067,0,0,0,0,2.135h.021a1.067,1.067,0,1,0,0-2.135Zm0,0" transform="translate(-159.383 -183.783)" fill="#b2b2b2"/>
    <path id="Subtraction_14" data-name="Subtraction 14" d="M49.972,50H36.561a4.025,4.025,0,0,1-4.027-4.013V43.05h-.007v-2.1h.007V29.565H25.3l.693,3.656h1.216a1.055,1.055,0,0,1,1.056,1.052,1.037,1.037,0,0,1-.228.653,1.062,1.062,0,0,1-.573.368H12.318a1.063,1.063,0,0,1-.573-.368,1.038,1.038,0,0,1-.228-.653,1.056,1.056,0,0,1,1.057-1.052h1.218l.691-3.656H4.031A4.028,4.028,0,0,1,0,25.549V4.016A4.028,4.028,0,0,1,4.031,0h31.72a4.028,4.028,0,0,1,4.03,4.016v6.9h.012v2.1h-.012v6.55h.012v.006h10.4A4.024,4.024,0,0,1,54,23.587v22.4A4.025,4.025,0,0,1,49.972,50ZM34.666,46.243h0a1.915,1.915,0,0,0,1.9,1.652H49.972a1.913,1.913,0,0,0,1.895-1.652Zm-.019-21.011V44.139h17.24V25.232H45.642l-.6.731a1.054,1.054,0,0,1-.819.388H42.163a1.059,1.059,0,0,1-.77-.333l-.741-.786ZM16.633,29.565l-.692,3.656h7.9l-.693-3.656H16.633ZM2.113,23.712v1.837A1.917,1.917,0,0,0,4.031,27.46h28.5V23.712H24.087a1.052,1.052,0,1,1,0-2.1H33.06a4.034,4.034,0,0,1,3.5-2.034h1.107V4.016A1.917,1.917,0,0,0,35.751,2.1H4.031A1.917,1.917,0,0,0,2.113,4.016V21.607H15.655a1.052,1.052,0,1,1,0,2.1Zm34.448-2.033a1.917,1.917,0,0,0-1.806,1.281c-.008.025-.017.05-.025.072h0c-.007.023-.013.048-.018.069l0,.016,0,.009h6.4a1.06,1.06,0,0,1,.77.333l.741.786h1.1l.6-.731a1.052,1.052,0,0,1,.819-.387h6.689a1.913,1.913,0,0,0-1.857-1.449Z" transform="translate(0 -0.32)" fill="#b2b2b2"/>
  </g>
</svg>
