<svg xmlns="http://www.w3.org/2000/svg" width="16" height="12.375" viewBox="0 0 16 12.375">
  <path id="email_5_" data-name="email (5)" d="M13.5.5H2.5A2.5,2.5,0,0,0,0,3v7.375a2.5,2.5,0,0,0,2.5,2.5h11a2.488,2.488,0,0,0,1.958-.946.63.63,0,0,0-.068-.851l-.031-.029-.108-.1-.383-.356L13.707,9.514,12.019,7.948a.625.625,0,1,0-.85.917c.915.848,2.162,2.005,2.853,2.647a1.25,1.25,0,0,1-.522.113H2.5a1.243,1.243,0,0,1-.52-.114L4.831,8.864a.625.625,0,1,0-.85-.916L1.255,10.479c0-.034,0-.069,0-.1V3c0-.037,0-.073.005-.109l4.726,4.35a.625.625,0,0,0,.423.165H9.6a.625.625,0,0,0,.423-.165l4.726-4.349c0,.036.005.071.005.108V7.875a.625.625,0,0,0,1.25,0V3A2.5,2.5,0,0,0,13.5.5ZM9.352,6.156h-2.7L1.983,1.862A1.243,1.243,0,0,1,2.5,1.75h11a1.241,1.241,0,0,1,.518.113Zm0,0" transform="translate(0 -0.5)" fill="#b2b2b2"/>
</svg>
