<svg xmlns="http://www.w3.org/2000/svg" width="20.687" height="16" viewBox="0 0 20.687 16">
  <path id="email_5_" data-name="email (5)" d="M17.455.5H3.232A3.236,3.236,0,0,0,0,3.732v9.535A3.236,3.236,0,0,0,3.232,16.5H17.455a3.217,3.217,0,0,0,2.532-1.223.814.814,0,0,0-.088-1.1l-.04-.038-.14-.131-.495-.461-1.5-1.393L15.539,10.13a.808.808,0,0,0-1.1,1.185c1.183,1.1,2.8,2.593,3.688,3.423a1.616,1.616,0,0,1-.674.146H3.232a1.607,1.607,0,0,1-.673-.147l3.687-3.422a.808.808,0,1,0-1.1-1.185L1.622,13.4c0-.044-.006-.089-.006-.134V3.732c0-.048,0-.094.006-.141l6.11,5.624a.808.808,0,0,0,.547.214h4.127a.808.808,0,0,0,.547-.213l6.11-5.623c0,.046.006.092.006.139v6.3a.808.808,0,0,0,1.616,0v-6.3A3.236,3.236,0,0,0,17.455.5ZM12.092,7.813H8.6L2.564,2.261a1.607,1.607,0,0,1,.668-.145H17.455a1.6,1.6,0,0,1,.67.146Zm0,0" transform="translate(0 -0.5)" fill="#fff"/>
</svg>
