<svg xmlns="http://www.w3.org/2000/svg" width="15.999" height="16" viewBox="0 0 15.999 16">
  <path id="exit" d="M11.781,12.25V13.5a2.5,2.5,0,0,1-2.5,2.5H3A2.5,2.5,0,0,1,.5,13.5V2.5A2.5,2.5,0,0,1,3,0H9.281a2.5,2.5,0,0,1,2.5,2.5V3.75a.625.625,0,0,1-1.25,0V2.5a1.251,1.251,0,0,0-1.25-1.25H3A1.251,1.251,0,0,0,1.75,2.5v11A1.251,1.251,0,0,0,3,14.75H9.281a1.251,1.251,0,0,0,1.25-1.25V12.25a.625.625,0,0,1,1.25,0Zm4.261-5.324-1.4-1.4a.625.625,0,0,0-.884.884l1,1H7.25a.625.625,0,0,0,0,1.25h7.5l-1,1a.625.625,0,1,0,.884.884l1.4-1.4A1.564,1.564,0,0,0,16.042,6.926Zm0,0" transform="translate(-0.5)" fill="#b2b2b2"/>
</svg>
