<svg id="icon_share" data-name="icon share" xmlns="http://www.w3.org/2000/svg" width="24" height="24" viewBox="0 0 24 24">
  <g id="Group_17" data-name="Group 17" transform="translate(12.325 15.703)">
    <g id="Group_16" data-name="Group 16">
      <path id="Path_733" data-name="Path 733" d="M271.623,335.952a4.042,4.042,0,0,0-3.115,1.465l-3.15-1.567a.941.941,0,0,0-.839,1.686l3.155,1.569a4.049,4.049,0,1,0,3.949-3.154Zm0,6.214a2.165,2.165,0,0,1-2-3,.951.951,0,0,0,.114-.232,2.165,2.165,0,1,1,1.884,3.233Z" transform="translate(-263.997 -335.752)" fill="#fff"/>
    </g>
  </g>
  <g id="Group_19" data-name="Group 19" transform="translate(0 0)">
    <g id="Group_18" data-name="Group 18">
      <path id="Path_734" data-name="Path 734" d="M19.969,0A4.052,4.052,0,0,0,16.04,4.956L7.118,9.449a4.048,4.048,0,1,0-.01,5.215l1.514.774a.935.935,0,0,0,1.261-.412.943.943,0,0,0-.41-1.266l-1.518-.776a4.082,4.082,0,0,0,0-1.852l8.918-4.491A4.038,4.038,0,1,0,19.969,0ZM4.031,14.216a2.165,2.165,0,1,1,2.156-2.165A2.163,2.163,0,0,1,4.031,14.216Zm15.938-8a2.165,2.165,0,1,1,2.156-2.165A2.163,2.163,0,0,1,19.969,6.214Z" transform="translate(0 0)" fill="#fff"/>
    </g>
  </g>
</svg>
