<svg id="instagram-logo_2_" data-name="instagram-logo (2)" xmlns="http://www.w3.org/2000/svg" width="24.032" height="24.032" viewBox="0 0 24.032 24.032">
  <path id="Path_191" data-name="Path 191" d="M17.4,0H6.632A6.64,6.64,0,0,0,0,6.632V17.4a6.639,6.639,0,0,0,6.632,6.632H17.4A6.64,6.64,0,0,0,24.032,17.4V6.632A6.64,6.64,0,0,0,17.4,0Zm4.5,17.4a4.5,4.5,0,0,1-4.5,4.5H6.632a4.5,4.5,0,0,1-4.5-4.5V6.632a4.5,4.5,0,0,1,4.5-4.5H17.4a4.505,4.505,0,0,1,4.5,4.5V17.4Z" fill="#2db2f9"/>
  <path id="Path_192" data-name="Path 192" d="M47.16,40.97a6.192,6.192,0,1,0,6.192,6.192A6.2,6.2,0,0,0,47.16,40.97Zm0,10.252a4.06,4.06,0,1,1,4.06-4.06A4.065,4.065,0,0,1,47.16,51.222Z" transform="translate(-35.144 -35.146)" fill="#2db2f9"/>
  <path id="Path_193" data-name="Path 193" d="M120.485,28.251a1.563,1.563,0,1,0,1.106.458A1.57,1.57,0,0,0,120.485,28.251Z" transform="translate(-102.016 -24.235)" fill="#2db2f9"/>
</svg>
