<svg xmlns="http://www.w3.org/2000/svg" width="12.844" height="16" viewBox="0 0 12.844 16">
  <g id="location" transform="translate(-81.049)">
    <path id="Path_785" data-name="Path 785" d="M164.433,86.175a.734.734,0,0,0-.732-.736,2.061,2.061,0,1,1,2.05-2.061.732.732,0,1,0,1.464,0,3.514,3.514,0,1,0-3.514,3.534A.734.734,0,0,0,164.433,86.175Z" transform="translate(-76.219 -76.915)" fill="#b2b2b2"/>
    <path id="Path_787" data-name="Path 787" d="M86.666,15.658a.734.734,0,0,0,.621.342h.369a.734.734,0,0,0,.621-.342A20.926,20.926,0,0,1,90.6,12.786c1.619-1.775,3.293-3.611,3.3-6.364a6.422,6.422,0,1,0-12.844,0c0,2.751,1.677,4.587,3.3,6.362A20.928,20.928,0,0,1,86.666,15.658Zm.805-14.19a4.964,4.964,0,0,1,4.954,4.955c0,2.183-1.351,3.662-2.912,5.374a26.655,26.655,0,0,0-2.042,2.43,26.632,26.632,0,0,0-2.042-2.43c-1.561-1.712-2.91-3.191-2.912-5.373A4.965,4.965,0,0,1,87.471,1.468Z" fill="#b2b2b2"/>
  </g>
</svg>
