<svg xmlns="http://www.w3.org/2000/svg" width="16" height="16" viewBox="0 0 16 16">
  <g id="phone-call_2_" data-name="phone-call (2)" transform="translate(0 -0.001)">
    <g id="Group_70" data-name="Group 70" transform="translate(0 0.002)">
      <path id="Path_788" data-name="Path 788" d="M16,12.894a2.367,2.367,0,0,0-.726-1.626,5.813,5.813,0,0,0-2.3-1.529,2.576,2.576,0,0,0-2.645.751l0,0-.845.839A12.663,12.663,0,0,1,6.813,9.27l-.082-.082A12.664,12.664,0,0,1,4.67,6.524l.839-.845,0,0A2.576,2.576,0,0,0,6.263,3.03,5.813,5.813,0,0,0,4.734.729,2.378,2.378,0,0,0,1.433.61L1.416.626,1.391.649A5.071,5.071,0,0,0,0,4.364a11.869,11.869,0,0,0,3.777,7.86,15.233,15.233,0,0,0,1.5,1.3.625.625,0,0,0,.761-.992,14,14,0,0,1-1.375-1.2A10.615,10.615,0,0,1,1.25,4.357,3.861,3.861,0,0,1,2.264,1.544l0,0A1.124,1.124,0,0,1,3.834,1.6c1.618,1.678,1.5,2.47.786,3.2L3.462,5.967a.625.625,0,0,0-.127.695,12.629,12.629,0,0,0,2.513,3.41l.082.082a12.627,12.627,0,0,0,3.41,2.513.625.625,0,0,0,.695-.127L11.2,11.381c.733-.715,1.526-.832,3.2.786a1.124,1.124,0,0,1,.057,1.566l0,0a3.85,3.85,0,0,1-2.784,1.014h-.029a8.1,8.1,0,0,1-3.084-.73.625.625,0,0,0-.5,1.148A9.22,9.22,0,0,0,11.638,16h.035a5.06,5.06,0,0,0,3.679-1.391l.023-.024.016-.018A2.367,2.367,0,0,0,16,12.894Z" transform="translate(0 -0.002)" fill="#b2b2b2"/>
    </g>
  </g>
</svg>
