<svg xmlns="http://www.w3.org/2000/svg" width="14.75" height="16" viewBox="0 0 14.75 16">
  <g id="trash" transform="translate(-20)">
    <path id="Path_849" data-name="Path 849" d="M34.125,2.594H30.344V1.875A1.877,1.877,0,0,0,28.469,0H26.281a1.877,1.877,0,0,0-1.875,1.875v.719H20.625a.625.625,0,0,0,0,1.25h.647l.762,9.875v.009A2.5,2.5,0,0,0,24.524,16h5.7a2.479,2.479,0,0,0,2.49-2.256.625.625,0,0,0-1.245-.114,1.235,1.235,0,0,1-1.245,1.119h-5.7a1.244,1.244,0,0,1-1.244-1.133l-.754-9.774h9.7l-.534,6.921a.625.625,0,0,0,.575.671l.049,0a.625.625,0,0,0,.622-.577l.541-7.017h.647a.625.625,0,0,0,0-1.25Zm-5.031,0H25.656V1.875a.626.626,0,0,1,.625-.625h2.188a.626.626,0,0,1,.625.625Z" fill="#b2b2b2"/>
    <path id="Path_850" data-name="Path 850" d="M146.6,163a.623.623,0,0,0-.595.649l.311,7.128a.623.623,0,0,0,.622.6h.028a.623.623,0,0,0,.595-.649l-.311-7.128A.623.623,0,0,0,146.6,163Zm5.009.595-.311,7.128a.623.623,0,0,0,.595.649h.028a.623.623,0,0,0,.622-.6l.311-7.128a.623.623,0,0,0-1.244-.054Zm-2.8.027v7.128a.623.623,0,1,0,1.245,0v-7.128a.623.623,0,0,0-1.245,0Z" transform="translate(-122.049 -157.884)" fill="#b2b2b2"/>
  </g>
</svg>
