<svg xmlns="http://www.w3.org/2000/svg" width="24.362" height="20" viewBox="0 0 24.362 20">
  <path id="twitter" d="M.482,20.041a14.286,14.286,0,0,0,7.67,2.21A14.028,14.028,0,0,0,22.383,7.989a5.825,5.825,0,0,0,2.1-3.944.77.77,0,0,0-1.159-.664,3.182,3.182,0,0,1-2.587.434,5.494,5.494,0,0,0-6.507-.876,5.286,5.286,0,0,0-2.87,4.954A12.747,12.747,0,0,1,3.094,3.377a.77.77,0,0,0-1.258.1,5.361,5.361,0,0,0-.12,5.295.8.8,0,0,0-.669.8,5.426,5.426,0,0,0,1.89,4.1.768.768,0,0,0-.2.8,5.522,5.522,0,0,0,3.125,3.348,8.957,8.957,0,0,1-4.878.814.77.77,0,0,0-.507,1.412Zm7.881-1.963A.77.77,0,0,0,7.91,16.7,4.012,4.012,0,0,1,4.759,15.06a5.426,5.426,0,0,0,1.05-.168.77.77,0,0,0-.049-1.5,3.949,3.949,0,0,1-2.992-2.687,5.309,5.309,0,0,0,1.173.156A.77.77,0,0,0,4.38,9.453,3.822,3.822,0,0,1,2.743,5.28a14.3,14.3,0,0,0,9.475,4.229A.768.768,0,0,0,13,8.568a3.753,3.753,0,0,1,1.959-4.274,3.933,3.933,0,0,1,4.809.73c.458.483,2.005.5,2.792.318a4.958,4.958,0,0,1-1.4,1.65.769.769,0,0,0-.327.668,12.508,12.508,0,0,1-3.444,9.19,12.6,12.6,0,0,1-9.236,3.861,12.918,12.918,0,0,1-4.145-.679,10.388,10.388,0,0,0,4.354-1.955Z" transform="translate(-0.124 -2.252)" fill="#fff"/>
</svg>
