<svg xmlns="http://www.w3.org/2000/svg" width="18.963" height="16" viewBox="0 0 18.963 16">
  <g id="loading_1_" data-name="loading (1)" transform="translate(0 -40)">
    <g id="Group_58" data-name="Group 58" transform="translate(3.211 40)">
      <g id="Group_57" data-name="Group 57">
        <path id="Path_779" data-name="Path 779" d="M102.244,49.034a.741.741,0,0,0-1.048-.005l-1.7,1.684V48a8,8,0,0,0-11.758-7.064l0,0-.01.005h0l-.022.012-.011.006-.008,0-.129.071-.008,0c-.174.1-.345.205-.511.317a.741.741,0,1,0,.827,1.229A6.519,6.519,0,0,1,98.014,48v2.731l-1.7-1.664a.741.741,0,1,0-1.035,1.06L97.19,52a2.24,2.24,0,0,0,3.126-.011l1.923-1.9A.741.741,0,0,0,102.244,49.034Z" transform="translate(-86.707 -40)" fill="#fff"/>
      </g>
    </g>
    <g id="Group_60" data-name="Group 60" transform="translate(0 46.815)">
      <g id="Group_59" data-name="Group 59">
        <path id="Path_780" data-name="Path 780" d="M.8,224.015a.74.74,0,0,0-.784.695c-.01.162-.015.326-.015.489,0,.109,0,.218.007.326a.741.741,0,0,0,.74.711h.03a.741.741,0,0,0,.71-.77c0-.088-.005-.178-.005-.267,0-.133,0-.267.012-.4A.741.741,0,0,0,.8,224.015Z" transform="translate(0 -224.014)" fill="#fff"/>
      </g>
    </g>
    <g id="Group_62" data-name="Group 62" transform="translate(0.717 50.409)">
      <g id="Group_61" data-name="Group 61">
        <path id="Path_781" data-name="Path 781" d="M21.092,322.058a6.518,6.518,0,0,1-.319-.583.741.741,0,1,0-1.334.644,8,8,0,0,0,.392.716.741.741,0,1,0,1.262-.777Z" transform="translate(-19.365 -321.056)" fill="#fff"/>
      </g>
    </g>
    <g id="Group_64" data-name="Group 64" transform="translate(6.52 54.481)">
      <g id="Group_63" data-name="Group 63">
        <path id="Path_782" data-name="Path 782" d="M177.526,431.032c-.222,0-.445-.011-.665-.033a.741.741,0,1,0-.149,1.474,8.116,8.116,0,0,0,.813.041h0a.741.741,0,1,0,0-1.481Z" transform="translate(-176.046 -430.995)" fill="#fff"/>
      </g>
    </g>
    <g id="Group_66" data-name="Group 66" transform="translate(3.089 53.201)">
      <g id="Group_65" data-name="Group 65">
        <path id="Path_783" data-name="Path 783" d="M85.12,396.929a6.547,6.547,0,0,1-.563-.354.741.741,0,0,0-.852,1.212,8.032,8.032,0,0,0,.69.435.741.741,0,1,0,.724-1.292Z" transform="translate(-83.39 -396.44)" fill="#fff"/>
      </g>
    </g>
    <g id="Group_68" data-name="Group 68" transform="translate(0.783 43.334)">
      <g id="Group_67" data-name="Group 67" transform="translate(0 0)">
        <path id="Path_784" data-name="Path 784" d="M22.654,130.125a.741.741,0,0,0-1.024.222,8.013,8.013,0,0,0-.406.708.741.741,0,1,0,1.321.671,6.529,6.529,0,0,1,.331-.577A.741.741,0,0,0,22.654,130.125Z" transform="translate(-21.143 -130.007)" fill="#fff"/>
      </g>
    </g>
  </g>
</svg>
