<svg xmlns="http://www.w3.org/2000/svg" width="82" height="82" viewBox="0 0 82 82">
  <g id="video" transform="translate(-140 -878)">
    <g id="_3" data-name="3" transform="translate(140 878)" fill="none" stroke="#2db2fa" stroke-width="1.5">
      <circle cx="41" cy="41" r="41" stroke="none"/>
      <circle cx="41" cy="41" r="40.25" fill="none"/>
    </g>
    <g id="play" transform="translate(189 911.5) rotate(90)" fill="none">
      <path d="M7.148,1.384a1,1,0,0,1,1.7,0l6.21,10.092A1,1,0,0,1,14.21,13H1.79a1,1,0,0,1-.852-1.524Z" stroke="none"/>
      <path d="M 7.999998092651367 2.862070083618164 L 2.684349060058594 11.50000381469727 L 13.31564617156982 11.50000381469727 L 7.999998092651367 2.862070083618164 M 7.999999523162842 0.9080390930175781 C 8.328207015991211 0.9080390930175781 8.656414031982422 1.06667423248291 8.851659774780273 1.383943557739258 L 15.06208992004395 11.47590446472168 C 15.4721097946167 12.14217376708984 14.99275970458984 13.00000381469727 14.21042919158936 13.00000381469727 L 1.789559364318848 13.00000381469727 C 1.00723934173584 13.00000381469727 0.5278892517089844 12.14217376708984 0.9379091262817383 11.47590446472168 L 7.14833927154541 1.383943557739258 C 7.343584060668945 1.06667423248291 7.671792030334473 0.9080390930175781 7.999999523162842 0.9080390930175781 Z" stroke="none" fill="#fff"/>
    </g>
  </g>
</svg>
