<svg xmlns="http://www.w3.org/2000/svg" width="48.376" height="50.437" viewBox="0 0 48.376 50.437">
  <g id="product" transform="translate(0.206 0.224)">
    <path id="Path_800" data-name="Path 800" d="M46.338,23.165A23.165,23.165,0,1,0,33,44.152l-.2,4.68c0,.012,0,.023,0,.035a1.128,1.128,0,0,0,.651,1.025,1.106,1.106,0,0,0,1.194-.173l4.377-3.771L43.4,49.721a1.1,1.1,0,0,0,1.193.171,1.128,1.128,0,0,0,.651-1.025c0-.011,0-.023,0-.034l-.42-9.959A8.928,8.928,0,0,0,46.085,26.6,23.466,23.466,0,0,0,46.338,23.165ZM23.168,44.709A21.545,21.545,0,1,1,44.712,23.165c0,.649-.031,1.3-.088,1.946a8.882,8.882,0,0,0-5.6-1.979,9.047,9.047,0,0,0-2.445.342V16.958a.819.819,0,0,0-.57-.774l-11.778-3.8a.823.823,0,0,0-.5,0l-11.783,3.8a.82.82,0,0,0-.571.774V33.03a.819.819,0,0,0,.57.774l11.778,3.8a.819.819,0,0,0,.5,0l6.53-2.106a8.987,8.987,0,0,0,2.459,3.377L33.074,42.3A21.576,21.576,0,0,1,23.168,44.709Zm6.917-12.635a8.935,8.935,0,0,0,.194,1.869l-5.891,1.9V21.478l10.569-3.4v6.043A8.848,8.848,0,0,0,30.085,32.075Zm-17.079-14,9.756,3.142V35.581l-9.756-3.142ZM23.981,19.9l-9.127-2.944,9.127-2.943,9.127,2.943ZM43.57,47.721l-3.794-3.269a1.1,1.1,0,0,0-1.508,0l-3.794,3.269.327-7.764a8.928,8.928,0,0,0,8.442,0Zm-4.548-8.329a7.317,7.317,0,1,1,7.317-7.317A7.317,7.317,0,0,1,39.021,39.392Zm0,0" transform="translate(0)" fill="#b2b2b2" stroke="#b2b2b2" stroke-width="0.4"/>
    <path id="Path_801" data-name="Path 801" d="M343.328,278.839l-4.8,4.8-2.441-2.464a.813.813,0,0,0-1.156,1.144l3.016,3.069a.835.835,0,0,0,.576.265h0a.837.837,0,0,0,.576-.262L344.477,280a.817.817,0,1,0-1.15-1.162Zm0,0" transform="translate(-300.683 -250.295)" fill="#b2b2b2" stroke="#b2b2b2" stroke-width="0.4"/>
  </g>
</svg>
