<svg id="policy" xmlns="http://www.w3.org/2000/svg" width="55.428" height="50.042" viewBox="0 0 55.428 50.042">
  <path id="Path_737" data-name="Path 737" d="M49.583,0H13.741A5.619,5.619,0,0,0,8.1,5.579l-.231,31.56H.874A.91.91,0,0,0,0,38.073v4.343A7.61,7.61,0,0,0,7.181,49.99v.052H37.363v-.059c.224.009.36.059.515.059H37.9a7.587,7.587,0,0,0,7.542-7.627v-27.6h9.112a.919.919,0,0,0,.874-.944V5.9A5.887,5.887,0,0,0,49.583,0ZM7.574,48.247H7.567A5.817,5.817,0,0,1,1.8,42.415V38.934h28.5V42.4a7.6,7.6,0,0,0,2.218,5.391,3.223,3.223,0,0,1,.472.455Zm36.073-5.832A5.8,5.8,0,0,1,37.9,48.247h-.018A5.832,5.832,0,0,1,32.09,42.4V38.073a.93.93,0,0,0-.9-.934H9.664L9.9,5.585A3.823,3.823,0,0,1,13.741,1.8h31.6a6.125,6.125,0,0,0-1.7,4.126Zm9.986-36.5v7.1H45.442V5.92A4.157,4.157,0,0,1,49.556,1.8h.025a4.092,4.092,0,0,1,4.051,4.111Zm0,0" transform="translate(0)" fill="#b2b2b2"/>
  <path id="Path_738" data-name="Path 738" d="M165.786,69.657l4.628,3.164a.884.884,0,0,0,1,0l4.614-3.163a6.971,6.971,0,0,0,2.787-5.318v-6.4a.877.877,0,0,0-.479-.806l-7.046-3.466a.882.882,0,0,0-.785,0l-7.033,3.456a.876.876,0,0,0-.478.806V64.34A6.972,6.972,0,0,0,165.786,69.657Zm-.994-11.168,6.115-3.017,6.115,3.025V64.34a5.173,5.173,0,0,1-2,3.834L170.9,70.993l-4.105-2.818a5.17,5.17,0,0,1-2-3.835Zm0,0" transform="translate(-144.708 -47.563)" fill="#b2b2b2"/>
  <path id="Path_739" data-name="Path 739" d="M203.609,121.231a.9.9,0,0,0,.636.269h0a.9.9,0,0,0,.635-.266l3.571-3.572a.9.9,0,1,0-1.269-1.271l-2.933,2.933-1.172-1.184a.9.9,0,0,0-1.276,1.264Zm0,0" transform="translate(-178.928 -103.099)" fill="#b2b2b2"/>
  <path id="Path_740" data-name="Path 740" d="M155.44,248H133.9a.9.9,0,1,0,0,1.8H155.44a.9.9,0,1,0,0-1.8Zm0,0" transform="translate(-118.077 -220.174)" fill="#b2b2b2"/>
  <path id="Path_741" data-name="Path 741" d="M155.44,285H133.9a.9.9,0,0,0,0,1.8H155.44a.9.9,0,1,0,0-1.8Zm0,0" transform="translate(-118.077 -253.023)" fill="#b2b2b2"/>
</svg>
