<svg xmlns="http://www.w3.org/2000/svg" width="49.757" height="49.929" viewBox="0 0 49.757 49.929">
  <g id="wallet_1_" data-name="wallet (1)" transform="translate(-0.864)">
    <g id="Group_90" data-name="Group 90" transform="translate(1.665 0)">
      <g id="Group_89" data-name="Group 89" transform="translate(0 0)">
        <path id="Path_804" data-name="Path 804" d="M47.528.722,37.353,0A1,1,0,0,0,37.2,1.99h.01l7.569.539L31.112,13.153,20.907,5.115a1,1,0,0,0-1.308.06l-10.4,9.975a1,1,0,0,0,.689,1.717.974.974,0,0,0,.689-.28l9.776-9.376L30.493,15.2a.99.99,0,0,0,1.228,0L46.27,3.907l-.549,7.17a1,1,0,0,0,.919,1.068h.08a1,1,0,0,0,1-.919l.729-9.436A1,1,0,0,0,47.528.722Z" transform="translate(-8.887 0)" fill="#b2b2b2"/>
      </g>
    </g>
    <g id="Group_92" data-name="Group 92" transform="translate(0.864 18.495)">
      <g id="Group_91" data-name="Group 91" transform="translate(0)">
        <path id="Path_805" data-name="Path 805" d="M38.419,190.3v-4.124a1,1,0,0,0-1.038-.959H31.03a.963.963,0,0,0-1,.939v6.361a12.679,12.679,0,0,0-4.394,4.983v-8.128a.977.977,0,0,0-1.009-.959H18.278a.988.988,0,0,0-1.028.959v14.109H12.856v-9.866a1,1,0,0,0-.989-1.019H5.517a.971.971,0,0,0-.949,1.019v9.866H1.863a1,1,0,1,0,0,2H24.35A13.212,13.212,0,1,0,38.419,190.3Zm-27.56,13.181H6.566V194.6h4.294Zm12.781,0H19.247V190.4h4.394Zm8.388-16.276h4.394v3.1a13.121,13.121,0,0,0-4.394,1.108Zm5.372,27.47a11.214,11.214,0,1,1,11.214-11.214A11.216,11.216,0,0,1,37.4,214.678Z" transform="translate(-0.864 -185.22)" fill="#b2b2b2"/>
      </g>
    </g>
    <g id="Group_94" data-name="Group 94" transform="translate(29.432 29.969)">
      <g id="Group_93" data-name="Group 93">
        <path id="Path_806" data-name="Path 806" d="M299.945,300.127H289.96a2.992,2.992,0,0,0-3,3v7.589a2.992,2.992,0,0,0,3,3h9.985a2.992,2.992,0,0,0,3-3v-7.589A2.992,2.992,0,0,0,299.945,300.127Zm1,7.789h-2.6v-1.9h2.6Zm0-3.894h-2.616a1.948,1.948,0,0,0-1.977,1.907v1.977a1.986,1.986,0,0,0,1.967,2.007h2.626v.809a.989.989,0,0,1-.979.989h-10a1,1,0,0,1-1.009-.989v-7.589a1.006,1.006,0,0,1,1.009-1.009h9.985a1,1,0,0,1,.989,1.009v.889Z" transform="translate(-286.964 -300.127)" fill="#b2b2b2"/>
      </g>
    </g>
  </g>
</svg>
