<svg xmlns="http://www.w3.org/2000/svg" width="38" height="51" viewBox="0 0 38 51"><g><g><g><path fill="#b2b2b2" d="M10.945 15.267a7.882 7.882 0 1 1 11.327 7.077l-.003-.116-.001-.022a2.647 2.647 0 0 1 .793-2.09 6.188 6.188 0 0 0-4.622-10.68c-3.13.207-5.671 2.81-5.785 5.924a6.19 6.19 0 0 0 1.94 4.753 2.71 2.71 0 0 1 .815 2.244 7.878 7.878 0 0 1-4.464-7.09zm4.78 3.65a4.547 4.547 0 0 1-1.426-3.494c.083-2.284 1.949-4.192 4.24-4.343a4.542 4.542 0 0 1 3.392 7.839 4.289 4.289 0 0 0-1.307 3.37l.018.634c-.328.076-.66.133-.995.17v-4.475h.26a.823.823 0 0 0 0-1.645h-2.159a.823.823 0 0 0 0 1.645h.253v4.476a8.832 8.832 0 0 1-.987-.17l.017-.274a4.363 4.363 0 0 0-1.305-3.732zm3.1 5.873zm0-.005c5.245 0 9.529-4.27 9.529-9.517a9.528 9.528 0 0 0-9.525-9.533 9.527 9.527 0 1 0-.005 19.055zm.002.005h-.002.002z"/></g><g><path fill="#b2b2b2" d="M36.002 48.758h-3.806v-3.806h3.806zm-15.326 0h-3.703v-3.806h3.703zm-15.224 0H1.646v-3.806h3.806zm11.791-22.32a.809.809 0 0 0-.648-.712 10.765 10.765 0 0 1-3.58-1.502.823.823 0 0 0-.97.062l-1.839 1.526-1.925-1.92 1.524-1.837a.823.823 0 0 0 .051-.98 10.421 10.421 0 0 1-1.507-3.568.813.813 0 0 0-.717-.643l-2.386-.232v-2.73l2.386-.231a.818.818 0 0 0 .72-.64 10.85 10.85 0 0 1 1.511-3.578.822.822 0 0 0-.057-.974L8.282 6.641l1.924-1.92 1.84 1.524a.823.823 0 0 0 .978.053 10.419 10.419 0 0 1 3.573-1.502.845.845 0 0 0 .646-.743l.231-2.407h2.736l.232 2.406c.034.36.296.656.648.735 1.275.283 2.488.796 3.58 1.512a.823.823 0 0 0 .97-.056l1.835-1.52 1.895 1.914-1.527 1.841a.823.823 0 0 0-.051.981 10.424 10.424 0 0 1 1.507 3.568.813.813 0 0 0 .717.643l2.386.232v2.731l-2.35.23a.818.818 0 0 0-.72.642 10.859 10.859 0 0 1-1.51 3.576.823.823 0 0 0 .057.975l1.524 1.837-1.925 1.921-1.838-1.524a.823.823 0 0 0-.98-.053 10.42 10.42 0 0 1-3.572 1.501.795.795 0 0 0-.647.7l-.23 2.364h-2.737zm19.558 16.868h-1.93v-5.9c0-.455-.384-.786-.838-.786H19.647v-6.172h1.31a.802.802 0 0 0 .82-.72l.246-2.535a12.014 12.014 0 0 0 3.024-1.264l1.958 1.626a.822.822 0 0 0 1.106-.049l2.986-2.979c.3-.3.323-.78.052-1.107l-1.625-1.96c.555-.945.983-1.959 1.273-3.015l2.516-.247a.817.817 0 0 0 .735-.819v-4.224a.817.817 0 0 0-.736-.819l-2.552-.247a12.03 12.03 0 0 0-1.272-3.018l1.624-1.957a.823.823 0 0 0-.048-1.104l-2.95-2.98a.823.823 0 0 0-1.11-.055l-1.962 1.628a12.435 12.435 0 0 0-3.019-1.274L21.776.762A.839.839 0 0 0 20.957 0h-4.23a.84.84 0 0 0-.819.762l-.247 2.558a12.04 12.04 0 0 0-3.023 1.274L10.68 2.973a.823.823 0 0 0-1.106.052l-2.986 2.98a.823.823 0 0 0-.053 1.109l1.626 1.96a12.467 12.467 0 0 0-1.274 3.014l-2.551.248a.816.816 0 0 0-.736.82v4.223a.816.816 0 0 0 .736.82l2.552.246c.284 1.06.712 2.075 1.272 3.018L6.537 23.42a.823.823 0 0 0 .051 1.108l2.986 2.98c.3.3.78.322 1.106.051l1.963-1.627c.945.556 1.96.984 3.018 1.274l.247 2.523c.044.417.4.73.82.719H18v6.172H3.615c-.454 0-.838.331-.838.786v5.9H.847a.833.833 0 0 0-.847.81v5.427a.876.876 0 0 0 .847.86h5.428a.855.855 0 0 0 .823-.86v-5.427a.812.812 0 0 0-.823-.81H4.423v-5.04h13.578v5.04h-1.89a.779.779 0 0 0-.784.81v5.427c0 .455.329.86.783.86h5.428c.454 0 .783-.405.783-.86v-5.427a.78.78 0 0 0-.783-.81h-1.891v-5.04h13.578v5.04h-1.852a.812.812 0 0 0-.822.81v5.427a.855.855 0 0 0 .822.86h5.428a.876.876 0 0 0 .847-.86v-5.427a.833.833 0 0 0-.847-.81z"/></g></g></g></svg>