<svg xmlns="http://www.w3.org/2000/svg" width="55.106" height="50.083" viewBox="0 0 55.106 50.083">
  <g id="network" transform="translate(0.001 -0.188)">
    <path id="Path_809" data-name="Path 809" d="M172.272,111.47v-2.081h7.51a.915.915,0,0,0,.918-.9v-6.958a4.923,4.923,0,0,0-4.871-5.343h-.961a.921.921,0,0,0-.842.608l-.843,2.267-.631-1.12a.875.875,0,0,0-.784-.433l-.906.026a.878.878,0,0,0-.8.462l-.494.942-.716-2.116a.928.928,0,0,0-.851-.637h-1.083a4.924,4.924,0,0,0-4.872,5.343v6.961a.933.933,0,0,0,.928.9h7.5v2.081ZM163.859,101.4a3.111,3.111,0,0,1,3.06-3.411h.442l1.19,3.489a.912.912,0,0,0,.757.614.9.9,0,0,0,.865-.426c.01-.016.018-.029.027-.046l1.128-2.176,1.234,2.2a.9.9,0,0,0,.853.457.925.925,0,0,0,.773-.606l1.3-3.511h.337a3.125,3.125,0,0,1,3.059,3.4c0,.03.014.072.014.1v6.1l-15.058,0v-6.1C163.844,101.458,163.862,101.427,163.859,101.4Zm0,0" transform="translate(-143.822 -85.212)" fill="#b2b2b2"/>
    <path id="Path_810" data-name="Path 810" d="M19.769,331.362l-1.438,1.057a4.757,4.757,0,0,0-.987-1.654,4.841,4.841,0,0,0-3.6-1.579h-.961a.88.88,0,0,0-.842.563l-.843,2.245-.631-1.132a.891.891,0,0,0-.784-.449l-.907.01a.889.889,0,0,0-.8.473l-.494.948-.716-2.068a.883.883,0,0,0-.851-.589H4.832A4.8,4.8,0,0,0,.02,334.438V341.4a.881.881,0,0,0,.883.9l16.769,0a.89.89,0,0,0,.889-.9v-6.929l2.264-1.656ZM16.775,334.3c0,.03-.011.061-.011.091v6.1l-14.946,0v-6.1c0-.03-.009-.061-.015-.091a3.012,3.012,0,0,1,3.029-3.321h.442l1.19,3.444a.888.888,0,0,0,.756.591.9.9,0,0,0,.865-.437c.01-.016.019-.035.027-.051l1.129-2.179,1.234,2.2a.9.9,0,0,0,.853.457.877.877,0,0,0,.773-.561l1.3-3.466h.337a3.015,3.015,0,0,1,3.032,3.321Zm0,0" transform="translate(0 -292.027)" fill="#b2b2b2"/>
    <path id="Path_811" data-name="Path 811" d="M193.246,247.892v-9.037a.9.9,0,0,0-.627-.856l-6.624-2.135a.9.9,0,0,0-.553,0L178.816,238a.9.9,0,0,0-.628.856v9.037a.9.9,0,0,0,.628.856l6.624,2.135a.91.91,0,0,0,.554,0l6.626-2.135A.9.9,0,0,0,193.246,247.892Zm-7.529-10.228,3.693,1.191-3.693,1.19-3.692-1.191Zm-5.731,2.425,4.72,1.519v7.148l-4.72-1.519Zm6.518,8.741v-7.149l4.944-1.592v7.149Zm0,0" transform="translate(-158.165 -209.154)" fill="#b2b2b2"/>
    <path id="Path_812" data-name="Path 812" d="M211.627,4.737A4.549,4.549,0,0,0,207.078.188h-.341a4.55,4.55,0,0,0-4.549,4.549v1.8a4.55,4.55,0,0,0,4.549,4.549h.341a4.549,4.549,0,0,0,4.549-4.549Zm-1.8,1.8a2.751,2.751,0,0,1-2.751,2.751h-.341a2.752,2.752,0,0,1-2.751-2.751v-1.8a2.752,2.752,0,0,1,2.751-2.751h.341a2.751,2.751,0,0,1,2.751,2.751Zm0,0" transform="translate(-179.468)" fill="#b2b2b2"/>
    <path id="Path_813" data-name="Path 813" d="M48.627,237.737a4.549,4.549,0,0,0-4.549-4.549h-.341a4.549,4.549,0,0,0-4.549,4.549v1.8a4.549,4.549,0,0,0,4.549,4.549h.341a4.549,4.549,0,0,0,4.549-4.549Zm-1.8,1.8a2.751,2.751,0,0,1-2.751,2.751h-.341a2.752,2.752,0,0,1-2.751-2.751v-1.8a2.752,2.752,0,0,1,2.751-2.751h.341a2.751,2.751,0,0,1,2.751,2.751Zm0,0" transform="translate(-34.785 -206.817)" fill="#b2b2b2"/>
    <path id="Path_814" data-name="Path 814" d="M373.627,237.737a4.549,4.549,0,0,0-4.549-4.549h-.341a4.549,4.549,0,0,0-4.549,4.549v1.8a4.549,4.549,0,0,0,4.549,4.549h.341a4.549,4.549,0,0,0,4.549-4.549Zm-1.8,1.8a2.751,2.751,0,0,1-2.751,2.751h-.341a2.752,2.752,0,0,1-2.751-2.751v-1.8a2.752,2.752,0,0,1,2.751-2.751h.341a2.751,2.751,0,0,1,2.751,2.751Zm0,0" transform="translate(-323.263 -206.817)" fill="#b2b2b2"/>
    <path id="Path_815" data-name="Path 815" d="M322.241,329.186h-.961a.88.88,0,0,0-.842.563l-.843,2.245-.631-1.132a.891.891,0,0,0-.784-.449l-.906.01a.889.889,0,0,0-.8.473l-.494.948-.716-2.068a.884.884,0,0,0-.852-.589H313.33a4.817,4.817,0,0,0-4.588,3.243l-1.286-.95-1.057,1.447,2.111,1.543V341.4a.888.888,0,0,0,.889.9l16.766,0a.889.889,0,0,0,.886-.9v-6.958a4.8,4.8,0,0,0-4.811-5.253Zm3.028,5.119c-.007.03-.012.061-.016.091v6.1l-14.946,0v-6.1c0-.03-.008-.061-.011-.091a3.015,3.015,0,0,1,3.033-3.321h.442l1.19,3.444a.888.888,0,0,0,.756.591.9.9,0,0,0,.865-.437c.01-.016.018-.035.027-.051l1.129-2.179,1.234,2.2a.9.9,0,0,0,.853.457.877.877,0,0,0,.773-.561l1.3-3.466h.337a3.012,3.012,0,0,1,3.028,3.321Zm0,0" transform="translate(-271.968 -292.027)" fill="#b2b2b2"/>
  </g>
</svg>
