<svg xmlns="http://www.w3.org/2000/svg" width="50.085" height="50.083" viewBox="0 0 50.085 50.083">
  <g id="testimonial" transform="translate(0 -0.005)">
    <g id="Group_21" data-name="Group 21" transform="translate(5.282 0.005)">
      <g id="Group_20" data-name="Group 20" transform="translate(0 0)">
        <path id="Path_742" data-name="Path 742" d="M60.833,7.012h-1.78c.268-1.982,1.364-2.082,1.868-2.128a.978.978,0,0,0,.89-.974V.983A.978.978,0,0,0,60.778.006C57.686.18,54,1.741,54,8.192v5.091a1.543,1.543,0,0,0,1.541,1.541h5.292a1.543,1.543,0,0,0,1.541-1.541V8.553A1.543,1.543,0,0,0,60.833,7.012Zm-.415,5.855H55.956V8.192c0-4.5,2-5.758,3.9-6.113V3.108c-1.31.4-2.818,1.576-2.818,4.883a.978.978,0,0,0,.978.978h2.4Z" transform="translate(-54 -0.005)" fill="#b2b2b2"/>
      </g>
    </g>
    <g id="Group_23" data-name="Group 23" transform="translate(15.283 0.005)">
      <g id="Group_22" data-name="Group 22" transform="translate(0 0)">
        <path id="Path_743" data-name="Path 743" d="M163.067,7.012h-1.78c.268-1.982,1.364-2.082,1.868-2.128a.978.978,0,0,0,.89-.974V.983a.978.978,0,0,0-1.033-.977c-3.092.174-6.778,1.735-6.778,8.185v5.091a1.543,1.543,0,0,0,1.541,1.541h5.292a1.543,1.543,0,0,0,1.541-1.541V8.553A1.543,1.543,0,0,0,163.067,7.012Zm-.415,5.855H158.19V8.192c0-4.5,2-5.758,3.9-6.113V3.108c-1.31.4-2.818,1.576-2.818,4.883a.978.978,0,0,0,.978.978h2.4Z" transform="translate(-156.234 -0.005)" fill="#b2b2b2"/>
      </g>
    </g>
    <g id="Group_27" data-name="Group 27" transform="translate(0 7.621)">
      <g id="Group_26" data-name="Group 26">
        <path id="Path_745" data-name="Path 745" d="M32.7,77.864H31.466a.978.978,0,0,0,0,1.956H32.7a15.431,15.431,0,0,1,3.184,30.53.978.978,0,0,0-.777.957v5.684l-6.025-6.025a.978.978,0,0,0-.692-.287h-11A15.434,15.434,0,0,1,3.892,87.762a.978.978,0,1,0-1.71-.951,17.39,17.39,0,0,0,15.2,25.825h10.6l7.409,7.409a.978.978,0,0,0,1.67-.692v-7.27A17.388,17.388,0,0,0,32.7,77.864Z" transform="translate(0 -77.864)" fill="#b2b2b2"/>
      </g>
    </g>
    <g id="Group_29" data-name="Group 29" transform="translate(12.026 17.367)">
      <g id="Group_28" data-name="Group 28">
        <path id="Path_746" data-name="Path 746" d="M147.992,177.492H123.915a.978.978,0,1,0,0,1.956h24.076a.978.978,0,1,0,0-1.956Z" transform="translate(-122.937 -177.492)" fill="#b2b2b2"/>
      </g>
    </g>
    <g id="Group_31" data-name="Group 31" transform="translate(12.026 22.584)">
      <g id="Group_30" data-name="Group 30">
        <path id="Path_747" data-name="Path 747" d="M147.992,230.825H123.915a.978.978,0,1,0,0,1.956h24.076a.978.978,0,1,0,0-1.956Z" transform="translate(-122.937 -230.825)" fill="#b2b2b2"/>
      </g>
    </g>
    <g id="Group_33" data-name="Group 33" transform="translate(12.026 27.801)">
      <g id="Group_32" data-name="Group 32">
        <path id="Path_748" data-name="Path 748" d="M147.992,284.158H123.915a.978.978,0,1,0,0,1.956h24.076a.978.978,0,1,0,0-1.956Z" transform="translate(-122.937 -284.158)" fill="#b2b2b2"/>
      </g>
    </g>
    <g id="Group_35" data-name="Group 35" transform="translate(23.269 33.018)">
      <g id="Group_34" data-name="Group 34">
        <path id="Path_749" data-name="Path 749" d="M251.683,337.492H238.849a.978.978,0,0,0,0,1.956h12.833a.978.978,0,0,0,0-1.956Z" transform="translate(-237.871 -337.492)" fill="#b2b2b2"/>
      </g>
    </g>
  </g>
</svg>
