<svg xmlns="http://www.w3.org/2000/svg" width="48.633" height="50.001" viewBox="0 0 48.633 50.001">
  <g id="XMLID_1203_" transform="translate(-7.005)">
    <g id="XMLID_1116_" transform="translate(7.005)">
      <g id="XMLID_386_">
        <path id="XMLID_895_" d="M75.345,168H71.439a.977.977,0,0,0-.977.977v3.906a.977.977,0,0,0,.977.977h3.906a.977.977,0,0,0,.977-.977v-3.906A.977.977,0,0,0,75.345,168Zm-.977,3.906H72.415v-1.953h1.953Z" transform="translate(-64.265 -151.593)" fill="#b2b2b2"/>
        <path id="XMLID_895_2" data-name="XMLID_895_" d="M75.345,168H71.439a.977.977,0,0,0-.977.977v3.906a.977.977,0,0,0,.977.977h3.906a.977.977,0,0,0,.977-.977v-3.906A.977.977,0,0,0,75.345,168Zm-.977,3.906H72.415v-1.953h1.953Z" transform="translate(-64.265 -161.75)" fill="#b2b2b2"/>
        <path id="XMLID_897_" d="M164.143,208H151.106a.977.977,0,1,0,0,1.953h13.038a.977.977,0,1,0,0-1.953Z" transform="translate(-136.152 -187.687)" fill="#b2b2b2"/>
        <path id="XMLID_897_2" data-name="XMLID_897_" d="M164.143,208H151.106a.977.977,0,1,0,0,1.953h13.038a.977.977,0,1,0,0-1.953Z" transform="translate(-136.152 -197.843)" fill="#b2b2b2"/>
        <path id="XMLID_941_" d="M75.345,272H71.439a.977.977,0,0,0-.977.977v3.906a.977.977,0,0,0,.977.977h3.906a.977.977,0,0,0,.977-.977v-3.906A.977.977,0,0,0,75.345,272Zm-.977,3.906H72.415v-1.953h1.953Z" transform="translate(-64.265 -245.437)" fill="#b2b2b2"/>
        <path id="XMLID_982_" d="M75.345,376H71.439a.977.977,0,0,0-.977.977v3.906a.977.977,0,0,0,.977.977h3.906a.977.977,0,0,0,.977-.977v-3.906A.977.977,0,0,0,75.345,376Zm-.977,3.906H72.415v-1.953h1.953Z" transform="translate(-64.265 -339.28)" fill="#b2b2b2"/>
        <path id="XMLID_983_" d="M159.492,416h-8.386a.977.977,0,1,0,0,1.953h8.386a.977.977,0,1,0,0-1.953Z" transform="translate(-136.152 -375.374)" fill="#b2b2b2"/>
        <path id="XMLID_1111_" d="M53.784,7.773a3.711,3.711,0,0,0-5.069,1.358l-.94,1.628h0l-1.315,2.278V3.32A3.324,3.324,0,0,0,43.139,0H10.325a3.324,3.324,0,0,0-3.32,3.32V46.681A3.324,3.324,0,0,0,10.325,50H43.139a3.324,3.324,0,0,0,3.32-3.32V28.028a.972.972,0,0,0-.01-.13L54.2,14.47l.94-1.628A3.715,3.715,0,0,0,53.784,7.773ZM51.473,9.289a1.758,1.758,0,0,1,1.977,2.577L53,12.648,49.954,10.89l.452-.782A1.746,1.746,0,0,1,51.473,9.289ZM39.586,35.879l-3.045-1.758,12.436-21.54,3.045,1.758Zm-3.6.174,2.211,1.277-2.658,2.05Zm8.524,10.628a1.369,1.369,0,0,1-1.367,1.367H10.325a1.369,1.369,0,0,1-1.367-1.367V3.32a1.369,1.369,0,0,1,1.367-1.367H43.139A1.369,1.369,0,0,1,44.506,3.32V16.407s0,.008,0,.012L36.395,30.47H21.959a.977.977,0,1,0,0,1.953H35.267l-.905,1.567a.978.978,0,0,0-.122.358l-.956,7.124a.977.977,0,0,0,1.564.9l5.692-4.39a.979.979,0,0,0,.249-.285l3.717-6.437Z" transform="translate(-7.005 0)" fill="#b2b2b2"/>
      </g>
    </g>
  </g>
</svg>
