<svg xmlns="http://www.w3.org/2000/svg" width="12.684" height="16" viewBox="0 0 12.684 16">
  <path id="attach-file_1_" data-name="attach-file (1)" d="M11.434,10.375V3.469a1.251,1.251,0,0,0-1.25-1.25H6.25V6.688a1.875,1.875,0,0,1-3.75,0V4A.625.625,0,0,1,3.75,4V6.688a.625.625,0,0,0,1.25,0V1.875a.625.625,0,0,0-1.234-.141.625.625,0,0,1-.656.483l-.048,0H2.5a1.251,1.251,0,0,0-1.25,1.25V13.5A1.251,1.251,0,0,0,2.5,14.75h7.684a1.251,1.251,0,0,0,1.25-1.25.625.625,0,0,1,1.25,0,2.5,2.5,0,0,1-2.5,2.5H2.5A2.5,2.5,0,0,1,0,13.5V3.469A2.5,2.5,0,0,1,2.5.969h.232a1.876,1.876,0,0,1,3.284,0h4.168a2.5,2.5,0,0,1,2.5,2.5v6.906a.625.625,0,0,1-1.25,0ZM3.125,12.25a.625.625,0,0,0,0,1.25H7.656a.625.625,0,0,0,0-1.25Zm7.031-1.844a.625.625,0,0,0-.625-.625H3.125a.625.625,0,0,0,0,1.25H9.531A.625.625,0,0,0,10.156,10.406ZM9.531,7.344H8.094a.625.625,0,0,0,0,1.25H9.531a.625.625,0,0,0,0-1.25Zm0-2.469H8.094a.625.625,0,0,0,0,1.25H9.531a.625.625,0,0,0,0-1.25Zm0,0" fill="#36b4f9"/>
</svg>
