<svg xmlns="http://www.w3.org/2000/svg" width="37.585" height="30.058" viewBox="0 0 37.585 30.058">
  <g id="laptop" transform="translate(0.05 0.047)">
    <path id="Path_821" data-name="Path 821" d="M37.485,9.21A2.6,2.6,0,0,0,34.87,6.627H33.721V3.494A3.476,3.476,0,0,0,30.222,0H5.076a3.473,3.473,0,0,0-3.5,3.491V21.38H.6a.586.586,0,0,0-.6.582v2.25A3.5,3.5,0,0,0,3.53,27.7h15.4a2.613,2.613,0,0,0,2.586,2.258H35.392a2.1,2.1,0,0,0,1.509-.619,2.061,2.061,0,0,0,.584-1.468ZM2.785,3.494A2.268,2.268,0,0,1,5.076,1.207H30.222a2.271,2.271,0,0,1,2.295,2.287V6.627H30.861V3.663a.577.577,0,0,0-.6-.574H5.038a.574.574,0,0,0-.6.574V21.38H2.785ZM1.2,24.211V22.584H13.092l.415.447A3.534,3.534,0,0,0,16.1,24.165h2.791V26.5H3.53A2.3,2.3,0,0,1,1.2,24.211Zm17.689-15V22.961H16.1a2.337,2.337,0,0,1-1.709-.756l-.594-.637a.6.6,0,0,0-.443-.187H5.645V4.293H29.657V6.627H21.513A2.6,2.6,0,0,0,18.893,9.211ZM36.035,28.5a.871.871,0,0,1-.643.253H21.517a1.39,1.39,0,0,1-1.42-1.37V9.213a1.4,1.4,0,0,1,1.418-1.382H34.869a1.392,1.392,0,0,1,1.412,1.38V27.883c0,.006,0,0,0,.009A.829.829,0,0,1,36.035,28.5Zm0,0" transform="translate(0 0)" fill="#36b4f9" stroke="#fff" stroke-width="0.1"/>
    <path id="Path_822" data-name="Path 822" d="M292.527,113.606a.6.6,0,0,0-.6-.6H278.6a.6.6,0,0,0-.6.6v16.635a.6.6,0,0,0,.6.6h13.323a.6.6,0,0,0,.6-.6Zm-1.2,16.033H279.2V114.208h12.119Zm0,0" transform="translate(-257.075 -104.495)" fill="#36b4f9" stroke="#fff" stroke-width="0.1"/>
    <path id="Path_823" data-name="Path 823" d="M360.043,358h-1.261a.6.6,0,0,0,0,1.2h1.261a.6.6,0,0,0,0-1.2Zm0,0" transform="translate(-331.219 -331.054)" fill="#36b4f9" stroke="#fff" stroke-width="0.1"/>
  </g>
</svg>
