<svg xmlns="http://www.w3.org/2000/svg" width="40.25" height="50.583" viewBox="0 0 40.25 50.583">
  <g id="calculator" transform="translate(-67.75 -18.75)">
    <path id="Path_824" data-name="Path 824" d="M107.75,23.007A4.007,4.007,0,0,0,103.744,19H72.007A4.007,4.007,0,0,0,68,23.007v42.07a4.007,4.007,0,0,0,4.007,4.007h31.737a4.007,4.007,0,0,0,4.007-4.007Zm-35.77-2.32h31.684a2.266,2.266,0,0,1,2.293,2.279V35.343H69.687V22.966a2.266,2.266,0,0,1,2.293-2.279Zm31.684,46.6H71.98a2.266,2.266,0,0,1-2.293-2.279V37.03h36.271V65.012a2.266,2.266,0,0,1-2.293,2.279Z" fill="#fff" stroke="#fff" stroke-width="0.5"/>
    <path id="Path_825" data-name="Path 825" d="M146.417,62.844a.844.844,0,0,0-.844-.844h-27.73a.844.844,0,0,0-.844.844v7.064a.844.844,0,0,0,.844.844h27.73a.844.844,0,0,0,.844-.844Zm-27.73.844h25.938v5.377H118.687Z" transform="translate(-43.833 -38.466)" fill="#fff" stroke="#fff" stroke-width="0.5"/>
    <path id="Path_826" data-name="Path 826" d="M124.7,238.844a.844.844,0,0,0-.844-.844h-6.01a.844.844,0,0,0-.844.844v4.323a.844.844,0,0,0,.844.844h6.01a.844.844,0,0,0,.844-.844Zm-1.792,3.479h-4.218v-2.636H122.9Z" transform="translate(-43.833 -195.909)" fill="#fff" stroke="#fff" stroke-width="0.5"/>
    <path id="Path_827" data-name="Path 827" d="M124.7,315.844a.844.844,0,0,0-.844-.844h-6.01a.844.844,0,0,0-.844.844v4.323a.844.844,0,0,0,.844.844h6.01a.844.844,0,0,0,.844-.844Zm-1.792,3.585h-4.218v-2.741H122.9Z" transform="translate(-43.833 -264.79)" fill="#fff" stroke="#fff" stroke-width="0.5"/>
    <path id="Path_828" data-name="Path 828" d="M124.7,392.844a.844.844,0,0,0-.844-.844h-6.01a.844.844,0,0,0-.844.844v4.323a.844.844,0,0,0,.844.844h6.01a.844.844,0,0,0,.844-.844Zm-1.792,3.585h-4.218v-2.741H122.9Z" transform="translate(-43.833 -333.671)" fill="#fff" stroke="#fff" stroke-width="0.5"/>
    <path id="Path_829" data-name="Path 829" d="M226.7,238.844a.844.844,0,0,0-.844-.844h-6.01a.844.844,0,0,0-.844.844v4.323a.844.844,0,0,0,.844.844h6.01a.844.844,0,0,0,.844-.844Zm-1.687,3.479h-4.323v-2.636h4.323Z" transform="translate(-135.079 -195.909)" fill="#fff" stroke="#fff" stroke-width="0.5"/>
    <path id="Path_830" data-name="Path 830" d="M226.7,315.844a.844.844,0,0,0-.844-.844h-6.01a.844.844,0,0,0-.844.844v4.323a.844.844,0,0,0,.844.844h6.01a.844.844,0,0,0,.844-.844Zm-1.687,3.585h-4.323v-2.741h4.323Z" transform="translate(-135.079 -264.79)" fill="#fff" stroke="#fff" stroke-width="0.5"/>
    <path id="Path_831" data-name="Path 831" d="M226.7,392.844a.844.844,0,0,0-.844-.844h-6.01a.844.844,0,0,0-.844.844v4.323a.844.844,0,0,0,.844.844h6.01a.844.844,0,0,0,.844-.844Zm-1.687,3.585h-4.323v-2.741h4.323Z" transform="translate(-135.079 -333.671)" fill="#fff" stroke="#fff" stroke-width="0.5"/>
    <path id="Path_832" data-name="Path 832" d="M329.7,238.844a.844.844,0,0,0-.844-.844h-6.01a.844.844,0,0,0-.844.844v4.323a.844.844,0,0,0,.844.844h6.01a.844.844,0,0,0,.844-.844Zm-1.687,3.479h-4.323v-2.636h4.323Z" transform="translate(-227.219 -195.909)" fill="#fff" stroke="#fff" stroke-width="0.5"/>
    <path id="Path_833" data-name="Path 833" d="M329.7,315.844a.844.844,0,0,0-.844-.844h-6.01a.844.844,0,0,0-.844.844v4.323a.844.844,0,0,0,.844.844h6.01a.844.844,0,0,0,.844-.844Zm-1.687,3.585h-4.323v-2.741h4.323Z" transform="translate(-227.219 -264.79)" fill="#fff" stroke="#fff" stroke-width="0.5"/>
    <path id="Path_834" data-name="Path 834" d="M329.7,392.844a.844.844,0,0,0-.844-.844h-6.01a.844.844,0,0,0-.844.844v4.323a.844.844,0,0,0,.844.844h6.01a.844.844,0,0,0,.844-.844Zm-1.687,3.585h-4.323v-2.741h4.323Z" transform="translate(-227.219 -333.671)" fill="#fff" stroke="#fff" stroke-width="0.5"/>
  </g>
</svg>
