<svg xmlns="http://www.w3.org/2000/svg" width="32.962" height="29.958" viewBox="0 0 32.962 29.958">
  <g id="network" transform="translate(0.001 -0.188)">
    <path id="Path_809" data-name="Path 809" d="M168.156,105.329v-1.245h4.492a.547.547,0,0,0,.549-.538V99.384a2.945,2.945,0,0,0-2.913-3.2h-.575a.551.551,0,0,0-.5.364l-.5,1.356-.377-.67a.523.523,0,0,0-.469-.259l-.542.016a.525.525,0,0,0-.477.276l-.3.564-.429-1.266a.555.555,0,0,0-.509-.381h-.648a2.945,2.945,0,0,0-2.915,3.2v4.164a.558.558,0,0,0,.555.538h4.486v1.245ZM163.124,99.3a1.861,1.861,0,0,1,1.83-2.04h.264l.712,2.087a.546.546,0,0,0,.453.367.535.535,0,0,0,.518-.255c.006-.009.011-.017.016-.027l.675-1.3.738,1.319a.538.538,0,0,0,.51.274.553.553,0,0,0,.463-.362l.78-2.1h.2a1.869,1.869,0,0,1,1.83,2.033c0,.018.009.043.009.061v3.651h-9.007V99.358C163.115,99.34,163.125,99.322,163.124,99.3Zm0,0" transform="translate(-151.138 -89.547)" fill="#36b4f9"/>
    <path id="Path_810" data-name="Path 810" d="M11.824,330.487l-.86.632a2.845,2.845,0,0,0-.591-.99,2.9,2.9,0,0,0-2.154-.944H7.645a.526.526,0,0,0-.5.337l-.5,1.343-.377-.677a.533.533,0,0,0-.469-.269l-.543.006a.532.532,0,0,0-.477.283l-.3.567-.429-1.237a.528.528,0,0,0-.509-.352H2.89a2.873,2.873,0,0,0-2.878,3.142v4.164a.527.527,0,0,0,.528.538H10.571a.533.533,0,0,0,.532-.538v-4.144l1.354-.99Zm-1.79,1.76c0,.018-.007.036-.007.054v3.651H1.087V332.3c0-.018-.005-.036-.009-.054a1.8,1.8,0,0,1,1.812-1.986h.264l.712,2.06a.531.531,0,0,0,.452.354.54.54,0,0,0,.518-.262c.006-.009.011-.021.016-.031l.675-1.3.738,1.318a.538.538,0,0,0,.51.273.525.525,0,0,0,.463-.335l.78-2.074h.2a1.8,1.8,0,0,1,1.814,1.986Zm0,0" transform="translate(0 -306.883)" fill="#36b4f9"/>
    <path id="Path_811" data-name="Path 811" d="M187.195,243.041v-5.406a.54.54,0,0,0-.375-.512l-3.962-1.277a.539.539,0,0,0-.331,0l-3.964,1.277a.541.541,0,0,0-.376.512v5.406a.541.541,0,0,0,.375.512l3.962,1.277a.544.544,0,0,0,.331,0l3.963-1.277A.54.54,0,0,0,187.195,243.041Zm-4.5-6.118,2.209.713-2.209.712-2.208-.713Zm-3.428,1.451,2.823.909v4.276l-2.823-.909Zm3.9,5.229v-4.276l2.958-.952v4.276Zm0,0" transform="translate(-166.211 -219.794)" fill="#36b4f9"/>
    <path id="Path_812" data-name="Path 812" d="M207.834,2.909A2.721,2.721,0,0,0,205.113.188h-.2a2.721,2.721,0,0,0-2.721,2.721V3.987a2.721,2.721,0,0,0,2.721,2.721h.2a2.721,2.721,0,0,0,2.721-2.721Zm-1.075,1.078a1.646,1.646,0,0,1-1.646,1.646h-.2a1.646,1.646,0,0,1-1.646-1.646V2.909a1.646,1.646,0,0,1,1.646-1.646h.2a1.646,1.646,0,0,1,1.646,1.646Zm0,0" transform="translate(-188.598)" fill="#36b4f9"/>
    <path id="Path_813" data-name="Path 813" d="M44.834,235.909a2.721,2.721,0,0,0-2.721-2.721h-.2a2.721,2.721,0,0,0-2.721,2.721v1.078a2.721,2.721,0,0,0,2.721,2.721h.2a2.721,2.721,0,0,0,2.721-2.721Zm-1.075,1.078a1.646,1.646,0,0,1-1.646,1.646h-.2a1.646,1.646,0,0,1-1.646-1.646v-1.078a1.646,1.646,0,0,1,1.646-1.646h.2a1.646,1.646,0,0,1,1.646,1.646Zm0,0" transform="translate(-36.554 -217.338)" fill="#36b4f9"/>
    <path id="Path_814" data-name="Path 814" d="M369.834,235.909a2.721,2.721,0,0,0-2.721-2.721h-.2a2.721,2.721,0,0,0-2.721,2.721v1.078a2.721,2.721,0,0,0,2.721,2.721h.2a2.721,2.721,0,0,0,2.721-2.721Zm-1.075,1.078a1.646,1.646,0,0,1-1.646,1.646h-.2a1.646,1.646,0,0,1-1.646-1.646v-1.078a1.646,1.646,0,0,1,1.646-1.646h.2a1.646,1.646,0,0,1,1.646,1.646Zm0,0" transform="translate(-339.709 -217.338)" fill="#36b4f9"/>
    <path id="Path_815" data-name="Path 815" d="M315.875,329.185H315.3a.526.526,0,0,0-.5.337l-.5,1.343-.377-.677a.533.533,0,0,0-.469-.269l-.542.006a.532.532,0,0,0-.477.283l-.3.567-.429-1.237a.529.529,0,0,0-.509-.352h-.648a2.881,2.881,0,0,0-2.744,1.94l-.769-.568-.633.865,1.263.923v4.146a.531.531,0,0,0,.532.538h10.029a.532.532,0,0,0,.53-.538v-4.162a2.872,2.872,0,0,0-2.878-3.142Zm1.811,3.062c0,.018-.007.036-.009.054v3.651h-8.94V332.3c0-.018,0-.036-.007-.054a1.8,1.8,0,0,1,1.814-1.986h.264l.712,2.06a.531.531,0,0,0,.452.354.54.54,0,0,0,.518-.262c.006-.009.011-.021.016-.031l.675-1.3.738,1.318a.537.537,0,0,0,.51.273.525.525,0,0,0,.463-.335l.78-2.074h.2a1.8,1.8,0,0,1,1.811,1.986Zm0,0" transform="translate(-285.804 -306.883)" fill="#36b4f9"/>
  </g>
</svg>
