<svg xmlns="http://www.w3.org/2000/svg" width="28.809" height="30.158" viewBox="0 0 28.809 30.158">
  <g id="report" transform="translate(0.1 0.1)">
    <path id="Path_816" data-name="Path 816" d="M0,27.3a2.742,2.742,0,0,0,2.8,2.655H19.263a2.752,2.752,0,0,0,2.744-2.21,2.7,2.7,0,0,0,2.334-2.621V13.167h1.338a.479.479,0,0,0,.264-.073L28.389,11.5a.481.481,0,0,0,0-.808L25.942,9.091A.5.5,0,0,0,25.679,9H24.341V6.364a.6.6,0,0,0-.215-.416L18.556.273a.484.484,0,0,0-.113-.116L18.427.143A.482.482,0,0,0,18.083,0H5.1A2.763,2.763,0,0,0,2.344,2.21,2.71,2.71,0,0,0,0,4.831ZM8.214,12.2V9.966H25.187V12.2Zm17.939-.4V10.4l1.078.7ZM18.663,1.74,22.67,5.859H19.309a.631.631,0,0,1-.646-.619ZM5.1.966H17.7V5.24a1.6,1.6,0,0,0,1.612,1.585h4.065V9H7.755a.528.528,0,0,0-.507.51v.062L5.81,9.543h0a.5.5,0,0,0-.483.5l.015,2.1a.483.483,0,0,0,.483.479H7.248v.071a.5.5,0,0,0,.507.473H8.776l-.007.725a1.063,1.063,0,0,0,.289.745.894.894,0,0,0,.626.282h5.867a.483.483,0,1,0,0-.966H9.738c0-.06,0-.03,0-.038l.007-.748H23.375v11.96a1.759,1.759,0,0,1-1.817,1.69H5.1a1.776,1.776,0,0,1-1.836-1.69V2.732c0-.025.016-.05.016-.075a.461.461,0,0,0,0-.063A1.769,1.769,0,0,1,5.1.966Zm2.15,10.691H6.3l-.021-1.13.968.011ZM.966,4.831A1.765,1.765,0,0,1,2.3,3.2V25.127a2.742,2.742,0,0,0,2.8,2.657H21a1.773,1.773,0,0,1-1.742,1.208H2.8A1.776,1.776,0,0,1,.966,27.3Zm0,0" fill="#36b4f9" stroke="#36b4f9" stroke-width="0.2"/>
    <path id="Path_817" data-name="Path 817" d="M88.944,268.966h7.944a.483.483,0,0,0,0-.966H88.944a.483.483,0,1,0,0,.966Zm0,0" transform="translate(-83.118 -251.813)" fill="#36b4f9" stroke="#36b4f9" stroke-width="0.2"/>
    <path id="Path_818" data-name="Path 818" d="M88.944,307.966H102.77a.483.483,0,1,0,0-.966H88.944a.483.483,0,1,0,0,.966Zm0,0" transform="translate(-83.118 -288.457)" fill="#36b4f9" stroke="#36b4f9" stroke-width="0.2"/>
    <path id="Path_819" data-name="Path 819" d="M88.944,346.966H102.77a.483.483,0,1,0,0-.966H88.944a.483.483,0,1,0,0,.966Zm0,0" transform="translate(-83.118 -325.102)" fill="#36b4f9" stroke="#36b4f9" stroke-width="0.2"/>
    <path id="Path_820" data-name="Path 820" d="M88.944,385.966H102.77a.483.483,0,1,0,0-.966H88.944a.483.483,0,1,0,0,.966Zm0,0" transform="translate(-83.118 -361.746)" fill="#36b4f9" stroke="#36b4f9" stroke-width="0.2"/>
  </g>
</svg>
