<svg xmlns="http://www.w3.org/2000/svg" width="48.228" height="50.484" viewBox="0 0 48.228 50.484">
  <g id="report" transform="translate(0.2 0.2)">
    <path id="Path_816" data-name="Path 816" d="M0,45.645a4.583,4.583,0,0,0,4.687,4.439H32.2a4.6,4.6,0,0,0,4.587-3.695,4.515,4.515,0,0,0,3.9-4.382V22.012h2.236a.8.8,0,0,0,.441-.122l4.091-2.657a.8.8,0,0,0,0-1.351L43.37,15.2a.831.831,0,0,0-.441-.153H40.693V10.639a1,1,0,0,0-.359-.7L31.021.456a.81.81,0,0,0-.19-.193L30.806.239A.805.805,0,0,0,30.23,0H8.522a4.62,4.62,0,0,0-4.6,3.695A4.53,4.53,0,0,0,0,8.077ZM13.733,20.4V16.661H42.106V20.4Zm29.99-.664V17.388l1.8,1.173ZM31.2,2.91l6.7,6.885H32.281A1.055,1.055,0,0,1,31.2,8.76ZM8.522,1.615H29.586V8.76a2.672,2.672,0,0,0,2.7,2.65h6.8v3.635H12.965a.883.883,0,0,0-.848.853V16l-2.4-.048H9.706a.83.83,0,0,0-.808.833L8.923,20.3a.807.807,0,0,0,.808.8h2.386v.119a.829.829,0,0,0,.848.79h1.707l-.011,1.212a1.778,1.778,0,0,0,.482,1.245,1.5,1.5,0,0,0,1.046.472H26a.808.808,0,1,0,0-1.616H16.279c0-.1,0-.05,0-.063l.011-1.25H39.077V42.007a2.941,2.941,0,0,1-3.038,2.826H8.522a2.969,2.969,0,0,1-3.069-2.826V4.567c0-.041.026-.083.026-.125a.77.77,0,0,0,0-.1A2.957,2.957,0,0,1,8.522,1.615Zm3.595,17.873H10.533L10.5,17.6l1.618.019ZM1.616,8.077A2.951,2.951,0,0,1,3.837,5.354V42.007a4.584,4.584,0,0,0,4.685,4.442H35.116A2.964,2.964,0,0,1,32.2,48.468H4.687a2.969,2.969,0,0,1-3.072-2.823Zm0,0" fill="#fff" stroke="#fff" stroke-width="0.4"/>
    <path id="Path_817" data-name="Path 817" d="M89.269,269.616H102.55a.808.808,0,0,0,0-1.616H89.269a.808.808,0,0,0,0,1.616Zm0,0" transform="translate(-79.529 -240.939)" fill="#fff" stroke="#fff" stroke-width="0.4"/>
    <path id="Path_818" data-name="Path 818" d="M89.269,308.616h23.114a.808.808,0,0,0,0-1.616H89.269a.808.808,0,0,0,0,1.616Zm0,0" transform="translate(-79.529 -276.001)" fill="#fff" stroke="#fff" stroke-width="0.4"/>
    <path id="Path_819" data-name="Path 819" d="M89.269,347.616h23.114a.808.808,0,0,0,0-1.616H89.269a.808.808,0,0,0,0,1.616Zm0,0" transform="translate(-79.529 -311.063)" fill="#fff" stroke="#fff" stroke-width="0.4"/>
    <path id="Path_820" data-name="Path 820" d="M89.269,386.616h23.114a.808.808,0,1,0,0-1.616H89.269a.808.808,0,0,0,0,1.616Zm0,0" transform="translate(-79.529 -346.125)" fill="#fff" stroke="#fff" stroke-width="0.4"/>
  </g>
</svg>
