<svg xmlns="http://www.w3.org/2000/svg" width="47.515" height="50.302" viewBox="0 0 47.515 50.302">
  <g id="atom" transform="translate(-29.703 -15.549)">
    <path id="Path_807" data-name="Path 807" d="M216.422,219.709a4.422,4.422,0,1,0,4.422,4.422,4.422,4.422,0,0,0-4.422-4.422Zm0,7.179a2.757,2.757,0,1,1,2.757-2.757,2.757,2.757,0,0,1-2.757,2.757Z" transform="translate(-163.068 -182.784)" fill="#fff" stroke="#fff" stroke-width="0.3"/>
    <path id="Path_808" data-name="Path 808" d="M72.6,42.231a4.4,4.4,0,0,0-1.672.329q-.431-.606-.906-1.212A29.823,29.823,0,0,0,72,38.522c2.72-4.45,3.234-8.337,1.446-10.946s-5.6-3.531-10.731-2.6c-.271.049-.544.1-.818.163q-.16-.39-.328-.767c-2.132-4.76-5.048-7.381-8.211-7.381a5.688,5.688,0,0,0-.962.083,4.418,4.418,0,0,0-6.569,5.905Q45.284,24,44.814,25.14c-.274-.059-.547-.114-.817-.163-5.132-.932-8.943-.009-10.731,2.6s-1.274,6.5,1.446,10.946a29.8,29.8,0,0,0,1.973,2.826q-.439.56-.841,1.12a4.42,4.42,0,0,0-3.565,8.052,6.583,6.583,0,0,0,.987,4.6c1.333,1.946,3.792,2.953,7.084,2.953A20.5,20.5,0,0,0,44,57.715c.271-.049.544-.1.818-.163q.16.39.328.767c2.133,4.76,5.048,7.381,8.211,7.381s6.078-2.622,8.211-7.381q.169-.376.328-.767c.275.059.548.114.818.163a20.5,20.5,0,0,0,3.646.354c3.292,0,5.751-1.008,7.084-2.953a6.526,6.526,0,0,0,1-4.446A4.421,4.421,0,0,0,72.6,42.231ZM63.009,26.616c4.383-.8,7.685-.1,9.06,1.9s.83,5.335-1.493,9.136a27.824,27.824,0,0,1-1.638,2.378,44.343,44.343,0,0,0-4.532-4.5,41.044,41.044,0,0,0-1.917-8.812Q62.749,26.663,63.009,26.616ZM58.841,49.351a50.535,50.535,0,0,1-5.487,3.28,50.535,50.535,0,0,1-5.487-3.28c-1.4-.96-2.732-1.972-3.978-3.017-.158-1.619-.24-3.288-.24-4.987s.082-3.367.24-4.982c1.251-1.052,2.583-2.066,3.978-3.022a50.535,50.535,0,0,1,5.487-3.281,50.536,50.536,0,0,1,5.487,3.28c1.4.957,2.728,1.971,3.978,3.022.158,1.617.239,3.285.239,4.982s-.082,3.369-.24,4.987C61.573,47.379,60.242,48.39,58.841,49.351Zm3.684-.638a37.44,37.44,0,0,1-1.665,6.878,36.38,36.38,0,0,1-5.649-2.06,52.8,52.8,0,0,0,4.571-2.807Q61.2,49.751,62.525,48.713ZM51.5,53.531a36.379,36.379,0,0,1-5.649,2.06,37.441,37.441,0,0,1-1.665-6.878q1.321,1.035,2.743,2.011A52.8,52.8,0,0,0,51.5,53.531Zm-9.405-8.785a40.218,40.218,0,0,1-3.258-3.4,40.727,40.727,0,0,1,3.258-3.395c-.071,1.114-.107,2.247-.107,3.392s.036,2.28.108,3.4Zm2.09-10.764A37.407,37.407,0,0,1,45.845,27.1,36.38,36.38,0,0,1,51.5,29.161a52.807,52.807,0,0,0-4.571,2.807q-1.415.971-2.743,2.013Zm11.029-4.821A36.38,36.38,0,0,1,60.86,27.1a37.443,37.443,0,0,1,1.666,6.88q-1.325-1.04-2.743-2.013a52.805,52.805,0,0,0-4.572-2.807Zm9.405,8.793a40.64,40.64,0,0,1,3.258,3.4,40.227,40.227,0,0,1-3.259,3.4q.106-1.676.108-3.4t-.107-3.393ZM49.192,17.365a2.757,2.757,0,1,1-2.757,2.757,2.757,2.757,0,0,1,2.757-2.757ZM47.147,24.04a4.419,4.419,0,0,0,6.216-5.383c2.428.006,4.863,2.337,6.682,6.4q.108.24.211.486a39.577,39.577,0,0,0-6.9,2.66,39.578,39.578,0,0,0-6.905-2.66Q46.78,24.758,47.147,24.04ZM36.133,37.654c-2.324-3.8-2.868-7.131-1.493-9.137s4.677-2.7,9.06-1.9c.172.031.345.065.519.1A41.149,41.149,0,0,0,42.3,35.527a44.424,44.424,0,0,0-4.533,4.5,27.8,27.8,0,0,1-1.638-2.378ZM34.418,43.9a2.757,2.757,0,1,1-2.757,2.757A2.757,2.757,0,0,1,34.418,43.9ZM43.7,56.077c-4.383.8-7.685.1-9.06-1.9a4.818,4.818,0,0,1-.738-3.132A4.418,4.418,0,0,0,37.3,43.3q.23-.317.474-.635a43.914,43.914,0,0,0,4.533,4.5,41.049,41.049,0,0,0,1.917,8.807C44.045,56.012,43.872,56.046,43.7,56.077Zm16.346,1.561c-1.821,4.066-4.26,6.4-6.691,6.4s-4.87-2.332-6.691-6.4q-.108-.24-.211-.486a39.577,39.577,0,0,0,6.9-2.659,39.577,39.577,0,0,0,6.9,2.66Q60.152,57.4,60.045,57.638Zm12.023-3.464c-1.375,2.005-4.677,2.7-9.06,1.9-.172-.031-.346-.065-.52-.1A41.03,41.03,0,0,0,64.4,47.169a43.9,43.9,0,0,0,4.533-4.5q.309.4.6.807a4.418,4.418,0,0,0,3.066,7.6c.069,0,.138,0,.206-.005a4.808,4.808,0,0,1-.739,3.106Zm.533-4.766a2.757,2.757,0,1,1,2.757-2.757A2.757,2.757,0,0,1,72.6,49.409Z" transform="translate(0)" fill="#fff" stroke="#fff" stroke-width="0.3"/>
  </g>
</svg>
