<svg xmlns="http://www.w3.org/2000/svg" width="62.668" height="50.083" viewBox="0 0 62.668 50.083">
  <g id="laptop" transform="translate(0 -0.003)">
    <path id="Path_821" data-name="Path 821" d="M62.667,15.394A4.343,4.343,0,0,0,58.3,11.077H56.375V5.84A5.811,5.811,0,0,0,50.525,0H8.487A5.806,5.806,0,0,0,2.643,5.84v29.9H1.01A.98.98,0,0,0,0,36.713v3.761a5.856,5.856,0,0,0,5.9,5.837H31.645a4.369,4.369,0,0,0,4.324,3.775h23.2a3.5,3.5,0,0,0,2.523-1.035,3.445,3.445,0,0,0,.976-2.454ZM4.656,5.84A3.791,3.791,0,0,1,8.487,2.016H50.525A3.8,3.8,0,0,1,54.362,5.84v5.237H51.593V6.121a.965.965,0,0,0-1-.959H8.422a.959.959,0,0,0-1,.959V35.741H4.656ZM2.013,40.474v-2.72H21.888l.694.747a5.908,5.908,0,0,0,4.337,1.9h4.666v3.9H5.9A3.84,3.84,0,0,1,2.013,40.474ZM31.585,15.4V38.383H26.919a3.907,3.907,0,0,1-2.856-1.264l-.993-1.066a1,1,0,0,0-.741-.313H9.438V7.176H49.58v3.9H35.966A4.354,4.354,0,0,0,31.585,15.4ZM60.244,47.65a1.456,1.456,0,0,1-1.075.423h-23.2a2.325,2.325,0,0,1-2.373-2.29V15.4a2.339,2.339,0,0,1,2.37-2.31H58.293a2.328,2.328,0,0,1,2.36,2.307V46.612c0,.01,0,0,0,.015A1.386,1.386,0,0,1,60.244,47.65Zm0,0" transform="translate(0 0)" fill="#fff"/>
    <path id="Path_822" data-name="Path 822" d="M302.287,114.011A1.007,1.007,0,0,0,301.28,113H279.007A1.007,1.007,0,0,0,278,114.011v27.81a1.007,1.007,0,0,0,1.007,1.007H301.28a1.007,1.007,0,0,0,1.007-1.007Zm-2.013,26.8h-20.26v-25.8h20.26Zm0,0" transform="translate(-243.017 -98.781)" fill="#fff"/>
    <path id="Path_823" data-name="Path 823" d="M361.295,358h-2.108a1.007,1.007,0,1,0,0,2.013h2.108a1.007,1.007,0,0,0,0-2.013Zm0,0" transform="translate(-313.107 -312.951)" fill="#fff"/>
  </g>
</svg>
