<svg xmlns="http://www.w3.org/2000/svg" width="23.777" height="29.958" viewBox="0 0 23.777 29.958">
  <g id="calculator" transform="translate(-68 -19)">
    <path id="Path_824" data-name="Path 824" d="M91.777,21.4a2.4,2.4,0,0,0-2.4-2.4H70.4A2.4,2.4,0,0,0,68,21.4V46.561a2.4,2.4,0,0,0,2.4,2.4H89.381a2.4,2.4,0,0,0,2.4-2.4Zm-21.4-1.388H89.333a1.355,1.355,0,0,1,1.372,1.363v7.4h-21.7v-7.4a1.355,1.355,0,0,1,1.372-1.363ZM89.333,47.886H70.381a1.355,1.355,0,0,1-1.372-1.363V29.785h21.7V46.522a1.355,1.355,0,0,1-1.372,1.363Z" fill="#36b4f9"/>
    <path id="Path_825" data-name="Path 825" d="M134.6,62.5a.5.5,0,0,0-.5-.5H117.5a.5.5,0,0,0-.5.5V66.73a.5.5,0,0,0,.5.5h16.587a.5.5,0,0,0,.5-.5Zm-16.587.5h15.515v3.217H118.009Z" transform="translate(-45.91 -40.288)" fill="#36b4f9"/>
    <path id="Path_826" data-name="Path 826" d="M121.6,238.5a.5.5,0,0,0-.5-.5H117.5a.5.5,0,0,0-.5.5v2.586a.5.5,0,0,0,.5.5H121.1a.5.5,0,0,0,.5-.5Zm-1.072,2.081h-2.523v-1.577h2.523Z" transform="translate(-45.91 -205.188)" fill="#36b4f9"/>
    <path id="Path_827" data-name="Path 827" d="M121.6,315.5a.5.5,0,0,0-.5-.5H117.5a.5.5,0,0,0-.5.5v2.586a.5.5,0,0,0,.5.5H121.1a.5.5,0,0,0,.5-.5Zm-1.072,2.144h-2.523v-1.64h2.523Z" transform="translate(-45.91 -277.331)" fill="#36b4f9"/>
    <path id="Path_828" data-name="Path 828" d="M121.6,392.5a.5.5,0,0,0-.5-.5H117.5a.5.5,0,0,0-.5.5v2.586a.5.5,0,0,0,.5.5H121.1a.5.5,0,0,0,.5-.5Zm-1.072,2.144h-2.523v-1.64h2.523Z" transform="translate(-45.91 -349.475)" fill="#36b4f9"/>
    <path id="Path_829" data-name="Path 829" d="M223.6,238.5a.5.5,0,0,0-.5-.5H219.5a.5.5,0,0,0-.5.5v2.586a.5.5,0,0,0,.5.5H223.1a.5.5,0,0,0,.5-.5Zm-1.009,2.081h-2.586v-1.577h2.586Z" transform="translate(-141.477 -205.188)" fill="#36b4f9"/>
    <path id="Path_830" data-name="Path 830" d="M223.6,315.5a.5.5,0,0,0-.5-.5H219.5a.5.5,0,0,0-.5.5v2.586a.5.5,0,0,0,.5.5H223.1a.5.5,0,0,0,.5-.5Zm-1.009,2.144h-2.586v-1.64h2.586Z" transform="translate(-141.477 -277.331)" fill="#36b4f9"/>
    <path id="Path_831" data-name="Path 831" d="M223.6,392.5a.5.5,0,0,0-.5-.5H219.5a.5.5,0,0,0-.5.5v2.586a.5.5,0,0,0,.5.5H223.1a.5.5,0,0,0,.5-.5Zm-1.009,2.144h-2.586v-1.64h2.586Z" transform="translate(-141.477 -349.475)" fill="#36b4f9"/>
    <path id="Path_832" data-name="Path 832" d="M326.6,238.5a.5.5,0,0,0-.5-.5H322.5a.5.5,0,0,0-.5.5v2.586a.5.5,0,0,0,.5.5H326.1a.5.5,0,0,0,.5-.5Zm-1.009,2.081h-2.586v-1.577h2.586Z" transform="translate(-237.98 -205.188)" fill="#36b4f9"/>
    <path id="Path_833" data-name="Path 833" d="M326.6,315.5a.5.5,0,0,0-.5-.5H322.5a.5.5,0,0,0-.5.5v2.586a.5.5,0,0,0,.5.5H326.1a.5.5,0,0,0,.5-.5Zm-1.009,2.144h-2.586v-1.64h2.586Z" transform="translate(-237.98 -277.331)" fill="#36b4f9"/>
    <path id="Path_834" data-name="Path 834" d="M326.6,392.5a.5.5,0,0,0-.5-.5H322.5a.5.5,0,0,0-.5.5v2.586a.5.5,0,0,0,.5.5H326.1a.5.5,0,0,0,.5-.5Zm-1.009,2.144h-2.586v-1.64h2.586Z" transform="translate(-237.98 -349.475)" fill="#36b4f9"/>
  </g>
</svg>
