<svg xmlns="http://www.w3.org/2000/svg" width="28.387" height="30.208" viewBox="0 0 28.387 30.208">
  <g id="atom" transform="translate(-29.861 -15.499)">
    <path id="Path_807" data-name="Path 807" d="M214.649,219.709a2.649,2.649,0,1,0,2.649,2.649A2.649,2.649,0,0,0,214.649,219.709Zm0,4.3a1.652,1.652,0,1,1,1.652-1.652,1.652,1.652,0,0,1-1.652,1.652Z" transform="translate(-170.658 -191.293)" fill="#36b4f9" stroke="#36b4f9" stroke-width="0.1"/>
    <path id="Path_808" data-name="Path 808" d="M55.523,31.6a2.634,2.634,0,0,0-1,.2q-.258-.363-.543-.726a17.868,17.868,0,0,0,1.182-1.693c1.63-2.666,1.938-5,.866-6.558S52.672,20.7,49.6,21.258c-.162.029-.326.062-.49.1q-.1-.234-.2-.459c-1.278-2.852-3.024-4.423-4.919-4.423a3.408,3.408,0,0,0-.576.05,2.647,2.647,0,0,0-3.936,3.538q-.323.609-.6,1.294c-.164-.035-.328-.068-.49-.1-3.075-.559-5.358-.006-6.429,1.557s-.764,3.892.866,6.558A17.858,17.858,0,0,0,34,31.067q-.263.335-.5.671a2.648,2.648,0,0,0-2.136,4.824,3.944,3.944,0,0,0,.591,2.754c.8,1.166,2.272,1.769,4.244,1.769a12.283,12.283,0,0,0,2.185-.212c.162-.029.326-.062.49-.1q.1.233.2.459c1.278,2.852,3.025,4.423,4.919,4.423s3.642-1.571,4.919-4.423q.1-.226.2-.459c.165.035.328.068.49.1a12.285,12.285,0,0,0,2.185.212c1.972,0,3.446-.6,4.244-1.769a3.91,3.91,0,0,0,.6-2.664,2.649,2.649,0,0,0-1.1-5.056ZM49.776,22.24c2.626-.477,4.6-.062,5.428,1.14s.5,3.2-.895,5.474a16.67,16.67,0,0,1-.982,1.425,26.568,26.568,0,0,0-2.715-2.7,24.591,24.591,0,0,0-1.149-5.28Q49.62,22.268,49.776,22.24Zm-2.5,13.622a30.277,30.277,0,0,1-3.288,1.965A30.278,30.278,0,0,1,40.7,35.862c-.84-.575-1.637-1.181-2.383-1.808-.095-.97-.144-1.97-.144-2.988s.049-2.017.144-2.985c.749-.63,1.548-1.238,2.383-1.811A30.278,30.278,0,0,1,43.991,24.3a30.278,30.278,0,0,1,3.288,1.965c.836.573,1.634,1.181,2.384,1.811.095.969.143,1.968.143,2.985s-.049,2.018-.144,2.988C48.915,34.68,48.118,35.286,47.278,35.862Zm2.207-.382a22.432,22.432,0,0,1-1,4.121A21.8,21.8,0,0,1,45.1,38.366a31.636,31.636,0,0,0,2.739-1.682Q48.693,36.1,49.486,35.479Zm-6.608,2.887A21.8,21.8,0,0,1,39.494,39.6a22.432,22.432,0,0,1-1-4.121q.792.62,1.643,1.2a31.639,31.639,0,0,0,2.739,1.682ZM37.243,33.1a24.1,24.1,0,0,1-1.952-2.035,24.4,24.4,0,0,1,1.952-2.034c-.042.667-.064,1.346-.064,2.032s.022,1.366.065,2.037ZM38.5,26.653a22.412,22.412,0,0,1,1-4.123,21.8,21.8,0,0,1,3.386,1.235,31.64,31.64,0,0,0-2.739,1.682q-.848.582-1.644,1.206ZM45.1,23.765a21.8,21.8,0,0,1,3.385-1.234,22.433,22.433,0,0,1,1,4.122q-.794-.623-1.644-1.206A31.638,31.638,0,0,0,45.1,23.765Zm5.635,5.268a24.349,24.349,0,0,1,1.952,2.034A24.1,24.1,0,0,1,50.738,33.1q.064-1,.065-2.037t-.064-2.033ZM41.5,16.7a1.652,1.652,0,1,1-1.652,1.652A1.652,1.652,0,0,1,41.5,16.7Zm-1.225,4A2.648,2.648,0,0,0,44,17.471c1.455,0,2.914,1.4,4,3.833q.064.144.126.291a23.713,23.713,0,0,0-4.136,1.593A23.713,23.713,0,0,0,39.854,21.6Q40.052,21.127,40.272,20.7Zm-6.6,8.156c-1.392-2.277-1.718-4.272-.895-5.474s2.8-1.617,5.428-1.14c.1.019.207.039.311.06a24.654,24.654,0,0,0-1.147,5.279,26.616,26.616,0,0,0-2.716,2.7,16.657,16.657,0,0,1-.982-1.425Zm-1.027,3.739a1.652,1.652,0,1,1-1.652,1.652A1.652,1.652,0,0,1,32.646,32.593Zm5.56,7.3c-2.626.477-4.6.062-5.428-1.14a2.887,2.887,0,0,1-.442-1.877,2.647,2.647,0,0,0,2.034-4.639q.138-.19.284-.38a26.311,26.311,0,0,0,2.716,2.7,24.594,24.594,0,0,0,1.148,5.277C38.414,39.852,38.31,39.873,38.206,39.891ZM48,40.827c-1.091,2.436-2.552,3.833-4.009,3.833s-2.918-1.4-4.009-3.833q-.064-.144-.126-.291a23.712,23.712,0,0,0,4.136-1.593,23.712,23.712,0,0,0,4.136,1.593Q48.064,40.683,48,40.827Zm7.2-2.075c-.824,1.2-2.8,1.617-5.428,1.14-.1-.019-.207-.039-.312-.06a24.583,24.583,0,0,0,1.148-5.277,26.3,26.3,0,0,0,2.716-2.7q.185.242.358.483a2.647,2.647,0,0,0,1.837,4.555c.041,0,.083,0,.123,0a2.881,2.881,0,0,1-.443,1.861Zm.319-2.855a1.652,1.652,0,1,1,1.652-1.652A1.652,1.652,0,0,1,55.523,35.9Z" transform="translate(0)" fill="#36b4f9" stroke="#36b4f9" stroke-width="0.1"/>
  </g>
</svg>
