<svg xmlns="http://www.w3.org/2000/svg" width="13.001" height="13.003" viewBox="0 0 13.001 13.003">
  <g id="mortarboard_1_" data-name="mortarboard (1)" transform="translate(-0.046 0)">
    <g id="Group_95" data-name="Group 95" transform="translate(0.046 0)">
      <path id="Path_835" data-name="Path 835" d="M12.9,6.3A12.093,12.093,0,0,0,9.6,3.69L9.54,3.662l.951-2A1.172,1.172,0,0,0,10.337.3,1.172,1.172,0,0,0,8.974.146L4.31,2.34A4.165,4.165,0,0,0,2.386,4.264l0,.01L.09,9.393A.508.508,0,0,0,.046,9.6V12.5a.508.508,0,0,0,1.016,0V10.751L3.74,9.478l.018.044a11.874,11.874,0,0,0,2.611,3.332.508.508,0,0,0,.689.027,9.855,9.855,0,0,1,3.719-1.8.508.508,0,0,0,.376-.376A9.433,9.433,0,0,1,11.758,9a.508.508,0,1,0-.925-.418,10.945,10.945,0,0,0-.591,1.592,11.1,11.1,0,0,0-3.466,1.648A10.793,10.793,0,0,1,4.7,9.143l-.038-.1,1.694-.805A4.164,4.164,0,0,0,8.28,6.311l.825-1.735.1.054,0,0A11.776,11.776,0,0,1,12.18,7.018.508.508,0,0,0,12.9,6.3ZM7.362,5.875A3.119,3.119,0,0,1,5.921,7.317L1.988,9.187,5.641,5.435a.508.508,0,0,0-.728-.709l-3,3.081L3.306,4.694A3.117,3.117,0,0,1,4.744,3.258L9.408,1.064a.339.339,0,0,1,.21-.045.337.337,0,0,1-.045.209Z" transform="translate(-0.046 0)" fill="#36b4f9"/>
    </g>
  </g>
</svg>
