<svg xmlns="http://www.w3.org/2000/svg" width="13" height="13" viewBox="0 0 13 13">
  <path id="user_5_" data-name="user (5)" d="M11.969,8.252a6.089,6.089,0,0,0-1.553-.972A.508.508,0,0,0,10,8.208a5.079,5.079,0,0,1,1.3.807,2.025,2.025,0,0,1,.686,1.522v.939a.508.508,0,0,1-.508.508H1.523a.508.508,0,0,1-.508-.508v-.939A2.025,2.025,0,0,1,1.7,9.015a7.138,7.138,0,0,1,4.8-1.5,3.762,3.762,0,1,0-2.289-.78,7.06,7.06,0,0,0-3.18,1.516A3.041,3.041,0,0,0,0,10.537v.939A1.525,1.525,0,0,0,1.523,13h9.953A1.525,1.525,0,0,0,13,11.477v-.939A3.041,3.041,0,0,0,11.969,8.252ZM3.758,3.758A2.742,2.742,0,1,1,6.5,6.5,2.745,2.745,0,0,1,3.758,3.758Zm0,0" fill="#36b4f9"/>
</svg>
