<svg xmlns="http://www.w3.org/2000/svg" width="15.969" height="16" viewBox="0 0 15.969 16">
  <path id="address" d="M3.743,6.394A2.654,2.654,0,0,0,6.394,9.045a.624.624,0,0,1,0,1.248,3.9,3.9,0,1,1,3.9-3.9.624.624,0,0,1-1.248,0,2.651,2.651,0,1,0-5.3,0Zm.49,5.517c-1.6-1.753-2.983-3.267-2.985-5.523a5.146,5.146,0,0,1,10.292,0,.624.624,0,0,0,.624.623h0a.624.624,0,0,0,.623-.625A6.394,6.394,0,0,0,1.875,1.87,6.353,6.353,0,0,0,0,6.388,6.68,6.68,0,0,0,1.056,9.953a18.982,18.982,0,0,0,2.256,2.8,21.3,21.3,0,0,1,2.368,2.926.624.624,0,1,0,1.055-.667A22.257,22.257,0,0,0,4.233,11.911Zm11.573.3a.624.624,0,0,1-.881.04l-.078-.071v2.064A1.759,1.759,0,0,1,13.09,16H9.584a1.759,1.759,0,0,1-1.756-1.757V12.207l-.047.043a.624.624,0,1,1-.842-.921l3.22-2.944a1.76,1.76,0,0,1,2.387,0l2.063,1.886a.624.624,0,0,1,.064.059l1.093,1A.624.624,0,0,1,15.805,12.21ZM13.6,11.038,11.7,9.306a.518.518,0,0,0-.7,0l-1.925,1.76v3.176a.51.51,0,0,0,.509.51H13.09a.51.51,0,0,0,.509-.51Zm0,0" fill="#b2b2b2"/>
</svg>
