<svg id="cash_1_" data-name="cash (1)" xmlns="http://www.w3.org/2000/svg" width="16.032" height="16" viewBox="0 0 16.032 16">
  <g id="Group_54" data-name="Group 54">
    <g id="Group_53" data-name="Group 53" transform="translate(0 0)">
      <path id="Path_776" data-name="Path 776" d="M15.406,7.276a.626.626,0,0,0,.626-.626V3.018a2.508,2.508,0,0,0-2.5-2.5H2.506A2.508,2.508,0,0,0,0,3.018V9.184c0,.13,0,1.274,0,1.426a1.905,1.905,0,0,0,1.275,1.722L11.544,16.4l.023.009a1.865,1.865,0,0,0,1.453-.087.626.626,0,1,0-.553-1.123.621.621,0,0,1-.475.032L7.376,13.4l5.673.982h.006a1.909,1.909,0,0,0,.308.025,1.864,1.864,0,0,0,1.283-.511.626.626,0,1,0-.858-.912.623.623,0,0,1-.529.163L8.28,12.285h5.247a2.508,2.508,0,0,0,2.5-2.5.626.626,0,0,0-1.252,0,1.254,1.254,0,0,1-1.252,1.252H2.506A1.254,1.254,0,0,1,1.254,9.781V3.018A1.254,1.254,0,0,1,2.506,1.765H13.527A1.254,1.254,0,0,1,14.78,3.018V6.65A.626.626,0,0,0,15.406,7.276Z" transform="translate(0 -0.513)" fill="#b2b2b2"/>
      <circle id="Ellipse_36" data-name="Ellipse 36" cx="0.625" cy="0.625" r="0.625" transform="translate(12.371 5.23)" fill="#b2b2b2"/>
      <path id="Path_777" data-name="Path 777" d="M155.035,83.759a3.163,3.163,0,1,0,3.156-3.375A3.275,3.275,0,0,0,155.035,83.759Zm5.062,0a1.917,1.917,0,1,1-1.906-2.125A2.027,2.027,0,0,1,160.1,83.759Z" transform="translate(-150.174 -77.879)" fill="#b2b2b2"/>
      <circle id="Ellipse_37" data-name="Ellipse 37" cx="0.625" cy="0.625" r="0.625" transform="translate(2.413 5.23)" fill="#b2b2b2"/>
    </g>
  </g>
</svg>
