<svg xmlns="http://www.w3.org/2000/svg" width="13.059" height="16" viewBox="0 0 13.059 16">
  <path id="list_1_" data-name="list (1)" d="M10.56,8.748a.625.625,0,0,1-.625.625H9.31a.625.625,0,0,1,0-1.25h.625A.625.625,0,0,1,10.56,8.748ZM3.124,9.4h4a.625.625,0,0,0,0-1.25h-4a.625.625,0,0,0,0,1.25Zm9.31,0a.625.625,0,0,0,.625-.625V2.5A2.5,2.5,0,0,0,10.56,0H2.5A2.5,2.5,0,0,0,0,2.5V13.856a1.209,1.209,0,0,0,.354.858l.921.926A1.209,1.209,0,0,0,2.136,16h0A1.209,1.209,0,0,0,3,15.643l.614-.614.615.615a1.219,1.219,0,0,0,1.721,0l.615-.615.615.615a1.219,1.219,0,0,0,1.721,0l.615-.615.607.609a1.209,1.209,0,0,0,.862.358h.006a1.208,1.208,0,0,0,.864-.366l.856-.875a1.211,1.211,0,0,0,.347-.852v-2a.625.625,0,0,0-1.25,0V13.89l-.824.842-.606-.608a1.209,1.209,0,0,0-.861-.358h0a1.209,1.209,0,0,0-.861.356l-.615.615-.615-.615a1.219,1.219,0,0,0-1.721,0l-.615.615-.615-.615a1.219,1.219,0,0,0-1.721,0l-.614.614-.888-.894V12.528H9.935a.625.625,0,1,0,0-1.25H1.25V2.5A1.251,1.251,0,0,1,2.5,1.25H10.56A1.251,1.251,0,0,1,11.81,2.5v6.28A.625.625,0,0,0,12.434,9.4Zm-2.5-3.749H9.31a.625.625,0,0,0,0,1.25h.625a.625.625,0,0,0,0-1.25ZM3.124,6.9H5.249a.625.625,0,0,0,0-1.25H3.124a.625.625,0,0,0,0,1.25ZM9.935,3.156H9.31a.625.625,0,1,0,0,1.25h.625a.625.625,0,0,0,0-1.25ZM7.123,3.124h-4a.625.625,0,1,0,0,1.25h4a.625.625,0,1,0,0-1.25Zm0,0" fill="#b2b2b2"/>
</svg>
