<svg id="menu_3_" data-name="menu (3)" xmlns="http://www.w3.org/2000/svg" width="16" height="16" viewBox="0 0 16 16">
  <g id="Group_46" data-name="Group 46" transform="translate(8.635)">
    <g id="Group_45" data-name="Group 45">
      <path id="Path_772" data-name="Path 772" d="M280.868,0H278.5A2.5,2.5,0,0,0,276,2.5V4.868a2.5,2.5,0,0,0,2.5,2.5h2.372a2.5,2.5,0,0,0,2.5-2.5V2.5A2.5,2.5,0,0,0,280.868,0Zm1.248,4.868a1.25,1.25,0,0,1-1.248,1.248H278.5a1.25,1.25,0,0,1-1.248-1.248V2.5A1.25,1.25,0,0,1,278.5,1.248h2.372A1.25,1.25,0,0,1,282.117,2.5Z" transform="translate(-276)" fill="#31b3fa"/>
    </g>
  </g>
  <g id="Group_48" data-name="Group 48">
    <g id="Group_47" data-name="Group 47">
      <path id="Path_773" data-name="Path 773" d="M4.868,0H2.5A2.5,2.5,0,0,0,0,2.5V4.868a2.5,2.5,0,0,0,2.5,2.5H4.868a2.5,2.5,0,0,0,2.5-2.5V2.5A2.5,2.5,0,0,0,4.868,0ZM6.117,4.868A1.25,1.25,0,0,1,4.868,6.117H2.5A1.25,1.25,0,0,1,1.248,4.868V2.5A1.25,1.25,0,0,1,2.5,1.248H4.868A1.25,1.25,0,0,1,6.117,2.5Z" fill="#31b3fa"/>
    </g>
  </g>
  <g id="Group_50" data-name="Group 50" transform="translate(0 8.635)">
    <g id="Group_49" data-name="Group 49">
      <path id="Path_774" data-name="Path 774" d="M4.868,276H2.5A2.5,2.5,0,0,0,0,278.5v2.372a2.5,2.5,0,0,0,2.5,2.5H4.868a2.5,2.5,0,0,0,2.5-2.5V278.5A2.5,2.5,0,0,0,4.868,276Zm1.248,4.868a1.25,1.25,0,0,1-1.248,1.248H2.5a1.25,1.25,0,0,1-1.248-1.248V278.5A1.25,1.25,0,0,1,2.5,277.248H4.868A1.25,1.25,0,0,1,6.117,278.5Z" transform="translate(0 -276)" fill="#31b3fa"/>
    </g>
  </g>
  <g id="Group_52" data-name="Group 52" transform="translate(8.635 8.635)">
    <g id="Group_51" data-name="Group 51">
      <path id="Path_775" data-name="Path 775" d="M282.741,280.244a.624.624,0,0,0-.624.624,1.25,1.25,0,0,1-1.248,1.248H278.5a1.25,1.25,0,0,1-1.248-1.248V278.5a1.25,1.25,0,0,1,1.248-1.248h2.372a1.249,1.249,0,0,1,1.145.749.624.624,0,1,0,1.144-.5,2.5,2.5,0,0,0-2.288-1.5H278.5a2.5,2.5,0,0,0-2.5,2.5v2.372a2.5,2.5,0,0,0,2.5,2.5h2.372a2.5,2.5,0,0,0,2.5-2.5A.624.624,0,0,0,282.741,280.244Z" transform="translate(-276 -276)" fill="#31b3fa"/>
    </g>
  </g>
</svg>
