<svg id="lines" xmlns="http://www.w3.org/2000/svg" xmlns:xlink="http://www.w3.org/1999/xlink" width="1923.5" height="1080" viewBox="0 0 1923.5 1080">
  <defs>
    <clipPath id="clip-path">
      <rect width="288" height="129" fill="none"/>
    </clipPath>
    <clipPath id="clip-path-2">
      <rect width="410" height="129" fill="none"/>
    </clipPath>
  </defs>
  <line id="Line_25" data-name="Line 25" x2="1919.5" transform="translate(0 877.5)" fill="none" stroke="#fff" stroke-width="1.5" opacity="0.3"/>
  <line id="Line_18" data-name="Line 18" x2="1640" transform="translate(144 959.5)" fill="none" stroke="#fff" stroke-width="1.5" opacity="0.3"/>
  <line id="Line_19" data-name="Line 19" x2="1919.5" transform="translate(4 412.5)" fill="none" stroke="#fff" stroke-width="1.5" opacity="0.3"/>
  <line id="Line_20" data-name="Line 20" x2="140" transform="translate(4 120.5)" fill="none" stroke="#fff" stroke-width="1.5" opacity="0.3"/>
  <line id="Line_21" data-name="Line 21" y2="547" transform="translate(477.5 413)" fill="none" stroke="#fff" stroke-width="1.5" opacity="0.3"/>
  <line id="Line_22" data-name="Line 22" y2="547" transform="translate(1449.5 413)" fill="none" stroke="#fff" stroke-width="1.5" opacity="0.3"/>
  <line id="Line_23" data-name="Line 23" y2="1080" transform="translate(1783.5)" fill="none" stroke="#fff" stroke-width="1.5" opacity="0.3"/>
  <line id="Line_24" data-name="Line 24" y2="1080" transform="translate(143.5)" fill="none" stroke="#fff" stroke-width="1.5" opacity="0.3"/>
  <line id="Line_26" data-name="Line 26" y2="82" transform="translate(282.5 878)" fill="none" stroke="#fff" stroke-width="1.5" opacity="0.3"/>
  <line id="Line_27" data-name="Line 27" y2="547" transform="translate(1644.5 413)" fill="none" stroke="#fff" stroke-width="1.5" opacity="0.3"/>
  <g id="points" transform="translate(133 125.5) rotate(90)" opacity="0.3" clip-path="url(#clip-path)">
    <g transform="translate(-692 -1532)">
      <circle id="Ellipse_19" data-name="Ellipse 19" cx="1.5" cy="1.5" r="1.5" transform="translate(693 1533)" fill="#e6e6e6"/>
    </g>
    <g transform="translate(-667 -1532)">
      <circle id="Ellipse_19-2" data-name="Ellipse 19" cx="1.5" cy="1.5" r="1.5" transform="translate(693 1533)" fill="#e6e6e6"/>
    </g>
    <g transform="translate(-642 -1532)">
      <circle id="Ellipse_19-3" data-name="Ellipse 19" cx="1.5" cy="1.5" r="1.5" transform="translate(693 1533)" fill="#e6e6e6"/>
    </g>
    <g transform="translate(-617 -1532)">
      <circle id="Ellipse_19-4" data-name="Ellipse 19" cx="1.5" cy="1.5" r="1.5" transform="translate(693 1533)" fill="#e6e6e6"/>
    </g>
    <g transform="translate(-592 -1532)">
      <circle id="Ellipse_19-5" data-name="Ellipse 19" cx="1.5" cy="1.5" r="1.5" transform="translate(693 1533)" fill="#e6e6e6"/>
    </g>
    <g transform="translate(-567 -1532)">
      <circle id="Ellipse_19-6" data-name="Ellipse 19" cx="1.5" cy="1.5" r="1.5" transform="translate(693 1533)" fill="#e6e6e6"/>
    </g>
    <g transform="translate(-542 -1532)">
      <circle id="Ellipse_19-7" data-name="Ellipse 19" cx="1.5" cy="1.5" r="1.5" transform="translate(693 1533)" fill="#e6e6e6"/>
    </g>
    <g transform="translate(-517 -1532)">
      <circle id="Ellipse_19-8" data-name="Ellipse 19" cx="1.5" cy="1.5" r="1.5" transform="translate(693 1533)" fill="#e6e6e6"/>
    </g>
    <g transform="translate(-492 -1532)">
      <circle id="Ellipse_19-9" data-name="Ellipse 19" cx="1.5" cy="1.5" r="1.5" transform="translate(693 1533)" fill="#e6e6e6"/>
    </g>
    <g transform="translate(-467 -1532)">
      <circle id="Ellipse_19-10" data-name="Ellipse 19" cx="1.5" cy="1.5" r="1.5" transform="translate(693 1533)" fill="#e6e6e6"/>
    </g>
    <g transform="translate(-442 -1532)">
      <circle id="Ellipse_19-11" data-name="Ellipse 19" cx="1.5" cy="1.5" r="1.5" transform="translate(693 1533)" fill="#e6e6e6"/>
    </g>
    <g transform="translate(-417 -1532)">
      <circle id="Ellipse_19-12" data-name="Ellipse 19" cx="1.5" cy="1.5" r="1.5" transform="translate(693 1533)" fill="#e6e6e6"/>
    </g>
    <g transform="translate(-692 -1507)">
      <circle id="Ellipse_19-13" data-name="Ellipse 19" cx="1.5" cy="1.5" r="1.5" transform="translate(693 1533)" fill="#e6e6e6"/>
    </g>
    <g transform="translate(-667 -1507)">
      <circle id="Ellipse_19-14" data-name="Ellipse 19" cx="1.5" cy="1.5" r="1.5" transform="translate(693 1533)" fill="#e6e6e6"/>
    </g>
    <g transform="translate(-642 -1507)">
      <circle id="Ellipse_19-15" data-name="Ellipse 19" cx="1.5" cy="1.5" r="1.5" transform="translate(693 1533)" fill="#e6e6e6"/>
    </g>
    <g transform="translate(-617 -1507)">
      <circle id="Ellipse_19-16" data-name="Ellipse 19" cx="1.5" cy="1.5" r="1.5" transform="translate(693 1533)" fill="#e6e6e6"/>
    </g>
    <g transform="translate(-592 -1507)">
      <circle id="Ellipse_19-17" data-name="Ellipse 19" cx="1.5" cy="1.5" r="1.5" transform="translate(693 1533)" fill="#e6e6e6"/>
    </g>
    <g transform="translate(-567 -1507)">
      <circle id="Ellipse_19-18" data-name="Ellipse 19" cx="1.5" cy="1.5" r="1.5" transform="translate(693 1533)" fill="#e6e6e6"/>
    </g>
    <g transform="translate(-542 -1507)">
      <circle id="Ellipse_19-19" data-name="Ellipse 19" cx="1.5" cy="1.5" r="1.5" transform="translate(693 1533)" fill="#e6e6e6"/>
    </g>
    <g transform="translate(-517 -1507)">
      <circle id="Ellipse_19-20" data-name="Ellipse 19" cx="1.5" cy="1.5" r="1.5" transform="translate(693 1533)" fill="#e6e6e6"/>
    </g>
    <g transform="translate(-492 -1507)">
      <circle id="Ellipse_19-21" data-name="Ellipse 19" cx="1.5" cy="1.5" r="1.5" transform="translate(693 1533)" fill="#e6e6e6"/>
    </g>
    <g transform="translate(-467 -1507)">
      <circle id="Ellipse_19-22" data-name="Ellipse 19" cx="1.5" cy="1.5" r="1.5" transform="translate(693 1533)" fill="#e6e6e6"/>
    </g>
    <g transform="translate(-442 -1507)">
      <circle id="Ellipse_19-23" data-name="Ellipse 19" cx="1.5" cy="1.5" r="1.5" transform="translate(693 1533)" fill="#e6e6e6"/>
    </g>
    <g transform="translate(-417 -1507)">
      <circle id="Ellipse_19-24" data-name="Ellipse 19" cx="1.5" cy="1.5" r="1.5" transform="translate(693 1533)" fill="#e6e6e6"/>
    </g>
    <g transform="translate(-692 -1482)">
      <circle id="Ellipse_19-25" data-name="Ellipse 19" cx="1.5" cy="1.5" r="1.5" transform="translate(693 1533)" fill="#e6e6e6"/>
    </g>
    <g transform="translate(-667 -1482)">
      <circle id="Ellipse_19-26" data-name="Ellipse 19" cx="1.5" cy="1.5" r="1.5" transform="translate(693 1533)" fill="#e6e6e6"/>
    </g>
    <g transform="translate(-642 -1482)">
      <circle id="Ellipse_19-27" data-name="Ellipse 19" cx="1.5" cy="1.5" r="1.5" transform="translate(693 1533)" fill="#e6e6e6"/>
    </g>
    <g transform="translate(-617 -1482)">
      <circle id="Ellipse_19-28" data-name="Ellipse 19" cx="1.5" cy="1.5" r="1.5" transform="translate(693 1533)" fill="#e6e6e6"/>
    </g>
    <g transform="translate(-592 -1482)">
      <circle id="Ellipse_19-29" data-name="Ellipse 19" cx="1.5" cy="1.5" r="1.5" transform="translate(693 1533)" fill="#e6e6e6"/>
    </g>
    <g transform="translate(-567 -1482)">
      <circle id="Ellipse_19-30" data-name="Ellipse 19" cx="1.5" cy="1.5" r="1.5" transform="translate(693 1533)" fill="#e6e6e6"/>
    </g>
    <g transform="translate(-542 -1482)">
      <circle id="Ellipse_19-31" data-name="Ellipse 19" cx="1.5" cy="1.5" r="1.5" transform="translate(693 1533)" fill="#e6e6e6"/>
    </g>
    <g transform="translate(-517 -1482)">
      <circle id="Ellipse_19-32" data-name="Ellipse 19" cx="1.5" cy="1.5" r="1.5" transform="translate(693 1533)" fill="#e6e6e6"/>
    </g>
    <g transform="translate(-492 -1482)">
      <circle id="Ellipse_19-33" data-name="Ellipse 19" cx="1.5" cy="1.5" r="1.5" transform="translate(693 1533)" fill="#e6e6e6"/>
    </g>
    <g transform="translate(-467 -1482)">
      <circle id="Ellipse_19-34" data-name="Ellipse 19" cx="1.5" cy="1.5" r="1.5" transform="translate(693 1533)" fill="#e6e6e6"/>
    </g>
    <g transform="translate(-442 -1482)">
      <circle id="Ellipse_19-35" data-name="Ellipse 19" cx="1.5" cy="1.5" r="1.5" transform="translate(693 1533)" fill="#e6e6e6"/>
    </g>
    <g transform="translate(-417 -1482)">
      <circle id="Ellipse_19-36" data-name="Ellipse 19" cx="1.5" cy="1.5" r="1.5" transform="translate(693 1533)" fill="#e6e6e6"/>
    </g>
    <g transform="translate(-692 -1457)">
      <circle id="Ellipse_19-37" data-name="Ellipse 19" cx="1.5" cy="1.5" r="1.5" transform="translate(693 1533)" fill="#e6e6e6"/>
    </g>
    <g transform="translate(-667 -1457)">
      <circle id="Ellipse_19-38" data-name="Ellipse 19" cx="1.5" cy="1.5" r="1.5" transform="translate(693 1533)" fill="#e6e6e6"/>
    </g>
    <g transform="translate(-642 -1457)">
      <circle id="Ellipse_19-39" data-name="Ellipse 19" cx="1.5" cy="1.5" r="1.5" transform="translate(693 1533)" fill="#e6e6e6"/>
    </g>
    <g transform="translate(-617 -1457)">
      <circle id="Ellipse_19-40" data-name="Ellipse 19" cx="1.5" cy="1.5" r="1.5" transform="translate(693 1533)" fill="#e6e6e6"/>
    </g>
    <g transform="translate(-592 -1457)">
      <circle id="Ellipse_19-41" data-name="Ellipse 19" cx="1.5" cy="1.5" r="1.5" transform="translate(693 1533)" fill="#e6e6e6"/>
    </g>
    <g transform="translate(-567 -1457)">
      <circle id="Ellipse_19-42" data-name="Ellipse 19" cx="1.5" cy="1.5" r="1.5" transform="translate(693 1533)" fill="#e6e6e6"/>
    </g>
    <g transform="translate(-542 -1457)">
      <circle id="Ellipse_19-43" data-name="Ellipse 19" cx="1.5" cy="1.5" r="1.5" transform="translate(693 1533)" fill="#e6e6e6"/>
    </g>
    <g transform="translate(-517 -1457)">
      <circle id="Ellipse_19-44" data-name="Ellipse 19" cx="1.5" cy="1.5" r="1.5" transform="translate(693 1533)" fill="#e6e6e6"/>
    </g>
    <g transform="translate(-492 -1457)">
      <circle id="Ellipse_19-45" data-name="Ellipse 19" cx="1.5" cy="1.5" r="1.5" transform="translate(693 1533)" fill="#e6e6e6"/>
    </g>
    <g transform="translate(-467 -1457)">
      <circle id="Ellipse_19-46" data-name="Ellipse 19" cx="1.5" cy="1.5" r="1.5" transform="translate(693 1533)" fill="#e6e6e6"/>
    </g>
    <g transform="translate(-442 -1457)">
      <circle id="Ellipse_19-47" data-name="Ellipse 19" cx="1.5" cy="1.5" r="1.5" transform="translate(693 1533)" fill="#e6e6e6"/>
    </g>
    <g transform="translate(-417 -1457)">
      <circle id="Ellipse_19-48" data-name="Ellipse 19" cx="1.5" cy="1.5" r="1.5" transform="translate(693 1533)" fill="#e6e6e6"/>
    </g>
    <g transform="translate(-692 -1432)">
      <circle id="Ellipse_19-49" data-name="Ellipse 19" cx="1.5" cy="1.5" r="1.5" transform="translate(693 1533)" fill="#e6e6e6"/>
    </g>
    <g transform="translate(-667 -1432)">
      <circle id="Ellipse_19-50" data-name="Ellipse 19" cx="1.5" cy="1.5" r="1.5" transform="translate(693 1533)" fill="#e6e6e6"/>
    </g>
    <g transform="translate(-642 -1432)">
      <circle id="Ellipse_19-51" data-name="Ellipse 19" cx="1.5" cy="1.5" r="1.5" transform="translate(693 1533)" fill="#e6e6e6"/>
    </g>
    <g transform="translate(-617 -1432)">
      <circle id="Ellipse_19-52" data-name="Ellipse 19" cx="1.5" cy="1.5" r="1.5" transform="translate(693 1533)" fill="#e6e6e6"/>
    </g>
    <g transform="translate(-592 -1432)">
      <circle id="Ellipse_19-53" data-name="Ellipse 19" cx="1.5" cy="1.5" r="1.5" transform="translate(693 1533)" fill="#e6e6e6"/>
    </g>
    <g transform="translate(-567 -1432)">
      <circle id="Ellipse_19-54" data-name="Ellipse 19" cx="1.5" cy="1.5" r="1.5" transform="translate(693 1533)" fill="#e6e6e6"/>
    </g>
    <g transform="translate(-542 -1432)">
      <circle id="Ellipse_19-55" data-name="Ellipse 19" cx="1.5" cy="1.5" r="1.5" transform="translate(693 1533)" fill="#e6e6e6"/>
    </g>
    <g transform="translate(-517 -1432)">
      <circle id="Ellipse_19-56" data-name="Ellipse 19" cx="1.5" cy="1.5" r="1.5" transform="translate(693 1533)" fill="#e6e6e6"/>
    </g>
    <g transform="translate(-492 -1432)">
      <circle id="Ellipse_19-57" data-name="Ellipse 19" cx="1.5" cy="1.5" r="1.5" transform="translate(693 1533)" fill="#e6e6e6"/>
    </g>
    <g transform="translate(-467 -1432)">
      <circle id="Ellipse_19-58" data-name="Ellipse 19" cx="1.5" cy="1.5" r="1.5" transform="translate(693 1533)" fill="#e6e6e6"/>
    </g>
    <g transform="translate(-442 -1432)">
      <circle id="Ellipse_19-59" data-name="Ellipse 19" cx="1.5" cy="1.5" r="1.5" transform="translate(693 1533)" fill="#e6e6e6"/>
    </g>
    <g transform="translate(-417 -1432)">
      <circle id="Ellipse_19-60" data-name="Ellipse 19" cx="1.5" cy="1.5" r="1.5" transform="translate(693 1533)" fill="#e6e6e6"/>
    </g>
    <g transform="translate(-692 -1407)">
      <circle id="Ellipse_19-61" data-name="Ellipse 19" cx="1.5" cy="1.5" r="1.5" transform="translate(693 1533)" fill="#e6e6e6"/>
    </g>
    <g transform="translate(-667 -1407)">
      <circle id="Ellipse_19-62" data-name="Ellipse 19" cx="1.5" cy="1.5" r="1.5" transform="translate(693 1533)" fill="#e6e6e6"/>
    </g>
    <g transform="translate(-642 -1407)">
      <circle id="Ellipse_19-63" data-name="Ellipse 19" cx="1.5" cy="1.5" r="1.5" transform="translate(693 1533)" fill="#e6e6e6"/>
    </g>
    <g transform="translate(-617 -1407)">
      <circle id="Ellipse_19-64" data-name="Ellipse 19" cx="1.5" cy="1.5" r="1.5" transform="translate(693 1533)" fill="#e6e6e6"/>
    </g>
    <g transform="translate(-592 -1407)">
      <circle id="Ellipse_19-65" data-name="Ellipse 19" cx="1.5" cy="1.5" r="1.5" transform="translate(693 1533)" fill="#e6e6e6"/>
    </g>
    <g transform="translate(-567 -1407)">
      <circle id="Ellipse_19-66" data-name="Ellipse 19" cx="1.5" cy="1.5" r="1.5" transform="translate(693 1533)" fill="#e6e6e6"/>
    </g>
    <g transform="translate(-542 -1407)">
      <circle id="Ellipse_19-67" data-name="Ellipse 19" cx="1.5" cy="1.5" r="1.5" transform="translate(693 1533)" fill="#e6e6e6"/>
    </g>
    <g transform="translate(-517 -1407)">
      <circle id="Ellipse_19-68" data-name="Ellipse 19" cx="1.5" cy="1.5" r="1.5" transform="translate(693 1533)" fill="#e6e6e6"/>
    </g>
    <g transform="translate(-492 -1407)">
      <circle id="Ellipse_19-69" data-name="Ellipse 19" cx="1.5" cy="1.5" r="1.5" transform="translate(693 1533)" fill="#e6e6e6"/>
    </g>
    <g transform="translate(-467 -1407)">
      <circle id="Ellipse_19-70" data-name="Ellipse 19" cx="1.5" cy="1.5" r="1.5" transform="translate(693 1533)" fill="#e6e6e6"/>
    </g>
    <g transform="translate(-442 -1407)">
      <circle id="Ellipse_19-71" data-name="Ellipse 19" cx="1.5" cy="1.5" r="1.5" transform="translate(693 1533)" fill="#e6e6e6"/>
    </g>
    <g transform="translate(-417 -1407)">
      <circle id="Ellipse_19-72" data-name="Ellipse 19" cx="1.5" cy="1.5" r="1.5" transform="translate(693 1533)" fill="#e6e6e6"/>
    </g>
  </g>
  <g id="points-2" data-name="points" transform="translate(1915 3.5) rotate(90)" opacity="0.3" clip-path="url(#clip-path-2)">
    <g transform="translate(-692 -1532)">
      <circle id="Ellipse_19-73" data-name="Ellipse 19" cx="1.5" cy="1.5" r="1.5" transform="translate(693 1533)" fill="#e6e6e6"/>
    </g>
    <g transform="translate(-667 -1532)">
      <circle id="Ellipse_19-74" data-name="Ellipse 19" cx="1.5" cy="1.5" r="1.5" transform="translate(693 1533)" fill="#e6e6e6"/>
    </g>
    <g transform="translate(-642 -1532)">
      <circle id="Ellipse_19-75" data-name="Ellipse 19" cx="1.5" cy="1.5" r="1.5" transform="translate(693 1533)" fill="#e6e6e6"/>
    </g>
    <g transform="translate(-617 -1532)">
      <circle id="Ellipse_19-76" data-name="Ellipse 19" cx="1.5" cy="1.5" r="1.5" transform="translate(693 1533)" fill="#e6e6e6"/>
    </g>
    <g transform="translate(-592 -1532)">
      <circle id="Ellipse_19-77" data-name="Ellipse 19" cx="1.5" cy="1.5" r="1.5" transform="translate(693 1533)" fill="#e6e6e6"/>
    </g>
    <g transform="translate(-567 -1532)">
      <circle id="Ellipse_19-78" data-name="Ellipse 19" cx="1.5" cy="1.5" r="1.5" transform="translate(693 1533)" fill="#e6e6e6"/>
    </g>
    <g transform="translate(-542 -1532)">
      <circle id="Ellipse_19-79" data-name="Ellipse 19" cx="1.5" cy="1.5" r="1.5" transform="translate(693 1533)" fill="#e6e6e6"/>
    </g>
    <g transform="translate(-517 -1532)">
      <circle id="Ellipse_19-80" data-name="Ellipse 19" cx="1.5" cy="1.5" r="1.5" transform="translate(693 1533)" fill="#e6e6e6"/>
    </g>
    <g transform="translate(-492 -1532)">
      <circle id="Ellipse_19-81" data-name="Ellipse 19" cx="1.5" cy="1.5" r="1.5" transform="translate(693 1533)" fill="#e6e6e6"/>
    </g>
    <g transform="translate(-467 -1532)">
      <circle id="Ellipse_19-82" data-name="Ellipse 19" cx="1.5" cy="1.5" r="1.5" transform="translate(693 1533)" fill="#e6e6e6"/>
    </g>
    <g transform="translate(-442 -1532)">
      <circle id="Ellipse_19-83" data-name="Ellipse 19" cx="1.5" cy="1.5" r="1.5" transform="translate(693 1533)" fill="#e6e6e6"/>
    </g>
    <g transform="translate(-417 -1532)">
      <circle id="Ellipse_19-84" data-name="Ellipse 19" cx="1.5" cy="1.5" r="1.5" transform="translate(693 1533)" fill="#e6e6e6"/>
    </g>
    <g transform="translate(-392 -1532)">
      <circle id="Ellipse_19-85" data-name="Ellipse 19" cx="1.5" cy="1.5" r="1.5" transform="translate(693 1533)" fill="#e6e6e6"/>
    </g>
    <g transform="translate(-367 -1532)">
      <circle id="Ellipse_19-86" data-name="Ellipse 19" cx="1.5" cy="1.5" r="1.5" transform="translate(693 1533)" fill="#e6e6e6"/>
    </g>
    <g transform="translate(-342 -1532)">
      <circle id="Ellipse_19-87" data-name="Ellipse 19" cx="1.5" cy="1.5" r="1.5" transform="translate(693 1533)" fill="#e6e6e6"/>
    </g>
    <g transform="translate(-317 -1532)">
      <circle id="Ellipse_19-88" data-name="Ellipse 19" cx="1.5" cy="1.5" r="1.5" transform="translate(693 1533)" fill="#e6e6e6"/>
    </g>
    <g transform="translate(-292 -1532)">
      <circle id="Ellipse_19-89" data-name="Ellipse 19" cx="1.5" cy="1.5" r="1.5" transform="translate(693 1533)" fill="#e6e6e6"/>
    </g>
    <g transform="translate(-692 -1507)">
      <circle id="Ellipse_19-90" data-name="Ellipse 19" cx="1.5" cy="1.5" r="1.5" transform="translate(693 1533)" fill="#e6e6e6"/>
    </g>
    <g transform="translate(-667 -1507)">
      <circle id="Ellipse_19-91" data-name="Ellipse 19" cx="1.5" cy="1.5" r="1.5" transform="translate(693 1533)" fill="#e6e6e6"/>
    </g>
    <g transform="translate(-642 -1507)">
      <circle id="Ellipse_19-92" data-name="Ellipse 19" cx="1.5" cy="1.5" r="1.5" transform="translate(693 1533)" fill="#e6e6e6"/>
    </g>
    <g transform="translate(-617 -1507)">
      <circle id="Ellipse_19-93" data-name="Ellipse 19" cx="1.5" cy="1.5" r="1.5" transform="translate(693 1533)" fill="#e6e6e6"/>
    </g>
    <g transform="translate(-592 -1507)">
      <circle id="Ellipse_19-94" data-name="Ellipse 19" cx="1.5" cy="1.5" r="1.5" transform="translate(693 1533)" fill="#e6e6e6"/>
    </g>
    <g transform="translate(-567 -1507)">
      <circle id="Ellipse_19-95" data-name="Ellipse 19" cx="1.5" cy="1.5" r="1.5" transform="translate(693 1533)" fill="#e6e6e6"/>
    </g>
    <g transform="translate(-542 -1507)">
      <circle id="Ellipse_19-96" data-name="Ellipse 19" cx="1.5" cy="1.5" r="1.5" transform="translate(693 1533)" fill="#e6e6e6"/>
    </g>
    <g transform="translate(-517 -1507)">
      <circle id="Ellipse_19-97" data-name="Ellipse 19" cx="1.5" cy="1.5" r="1.5" transform="translate(693 1533)" fill="#e6e6e6"/>
    </g>
    <g transform="translate(-492 -1507)">
      <circle id="Ellipse_19-98" data-name="Ellipse 19" cx="1.5" cy="1.5" r="1.5" transform="translate(693 1533)" fill="#e6e6e6"/>
    </g>
    <g transform="translate(-467 -1507)">
      <circle id="Ellipse_19-99" data-name="Ellipse 19" cx="1.5" cy="1.5" r="1.5" transform="translate(693 1533)" fill="#e6e6e6"/>
    </g>
    <g transform="translate(-442 -1507)">
      <circle id="Ellipse_19-100" data-name="Ellipse 19" cx="1.5" cy="1.5" r="1.5" transform="translate(693 1533)" fill="#e6e6e6"/>
    </g>
    <g transform="translate(-417 -1507)">
      <circle id="Ellipse_19-101" data-name="Ellipse 19" cx="1.5" cy="1.5" r="1.5" transform="translate(693 1533)" fill="#e6e6e6"/>
    </g>
    <g transform="translate(-392 -1507)">
      <circle id="Ellipse_19-102" data-name="Ellipse 19" cx="1.5" cy="1.5" r="1.5" transform="translate(693 1533)" fill="#e6e6e6"/>
    </g>
    <g transform="translate(-367 -1507)">
      <circle id="Ellipse_19-103" data-name="Ellipse 19" cx="1.5" cy="1.5" r="1.5" transform="translate(693 1533)" fill="#e6e6e6"/>
    </g>
    <g transform="translate(-342 -1507)">
      <circle id="Ellipse_19-104" data-name="Ellipse 19" cx="1.5" cy="1.5" r="1.5" transform="translate(693 1533)" fill="#e6e6e6"/>
    </g>
    <g transform="translate(-317 -1507)">
      <circle id="Ellipse_19-105" data-name="Ellipse 19" cx="1.5" cy="1.5" r="1.5" transform="translate(693 1533)" fill="#e6e6e6"/>
    </g>
    <g transform="translate(-292 -1507)">
      <circle id="Ellipse_19-106" data-name="Ellipse 19" cx="1.5" cy="1.5" r="1.5" transform="translate(693 1533)" fill="#e6e6e6"/>
    </g>
    <g transform="translate(-692 -1482)">
      <circle id="Ellipse_19-107" data-name="Ellipse 19" cx="1.5" cy="1.5" r="1.5" transform="translate(693 1533)" fill="#e6e6e6"/>
    </g>
    <g transform="translate(-667 -1482)">
      <circle id="Ellipse_19-108" data-name="Ellipse 19" cx="1.5" cy="1.5" r="1.5" transform="translate(693 1533)" fill="#e6e6e6"/>
    </g>
    <g transform="translate(-642 -1482)">
      <circle id="Ellipse_19-109" data-name="Ellipse 19" cx="1.5" cy="1.5" r="1.5" transform="translate(693 1533)" fill="#e6e6e6"/>
    </g>
    <g transform="translate(-617 -1482)">
      <circle id="Ellipse_19-110" data-name="Ellipse 19" cx="1.5" cy="1.5" r="1.5" transform="translate(693 1533)" fill="#e6e6e6"/>
    </g>
    <g transform="translate(-592 -1482)">
      <circle id="Ellipse_19-111" data-name="Ellipse 19" cx="1.5" cy="1.5" r="1.5" transform="translate(693 1533)" fill="#e6e6e6"/>
    </g>
    <g transform="translate(-567 -1482)">
      <circle id="Ellipse_19-112" data-name="Ellipse 19" cx="1.5" cy="1.5" r="1.5" transform="translate(693 1533)" fill="#e6e6e6"/>
    </g>
    <g transform="translate(-542 -1482)">
      <circle id="Ellipse_19-113" data-name="Ellipse 19" cx="1.5" cy="1.5" r="1.5" transform="translate(693 1533)" fill="#e6e6e6"/>
    </g>
    <g transform="translate(-517 -1482)">
      <circle id="Ellipse_19-114" data-name="Ellipse 19" cx="1.5" cy="1.5" r="1.5" transform="translate(693 1533)" fill="#e6e6e6"/>
    </g>
    <g transform="translate(-492 -1482)">
      <circle id="Ellipse_19-115" data-name="Ellipse 19" cx="1.5" cy="1.5" r="1.5" transform="translate(693 1533)" fill="#e6e6e6"/>
    </g>
    <g transform="translate(-467 -1482)">
      <circle id="Ellipse_19-116" data-name="Ellipse 19" cx="1.5" cy="1.5" r="1.5" transform="translate(693 1533)" fill="#e6e6e6"/>
    </g>
    <g transform="translate(-442 -1482)">
      <circle id="Ellipse_19-117" data-name="Ellipse 19" cx="1.5" cy="1.5" r="1.5" transform="translate(693 1533)" fill="#e6e6e6"/>
    </g>
    <g transform="translate(-417 -1482)">
      <circle id="Ellipse_19-118" data-name="Ellipse 19" cx="1.5" cy="1.5" r="1.5" transform="translate(693 1533)" fill="#e6e6e6"/>
    </g>
    <g transform="translate(-392 -1482)">
      <circle id="Ellipse_19-119" data-name="Ellipse 19" cx="1.5" cy="1.5" r="1.5" transform="translate(693 1533)" fill="#e6e6e6"/>
    </g>
    <g transform="translate(-367 -1482)">
      <circle id="Ellipse_19-120" data-name="Ellipse 19" cx="1.5" cy="1.5" r="1.5" transform="translate(693 1533)" fill="#e6e6e6"/>
    </g>
    <g transform="translate(-342 -1482)">
      <circle id="Ellipse_19-121" data-name="Ellipse 19" cx="1.5" cy="1.5" r="1.5" transform="translate(693 1533)" fill="#e6e6e6"/>
    </g>
    <g transform="translate(-317 -1482)">
      <circle id="Ellipse_19-122" data-name="Ellipse 19" cx="1.5" cy="1.5" r="1.5" transform="translate(693 1533)" fill="#e6e6e6"/>
    </g>
    <g transform="translate(-292 -1482)">
      <circle id="Ellipse_19-123" data-name="Ellipse 19" cx="1.5" cy="1.5" r="1.5" transform="translate(693 1533)" fill="#e6e6e6"/>
    </g>
    <g transform="translate(-692 -1457)">
      <circle id="Ellipse_19-124" data-name="Ellipse 19" cx="1.5" cy="1.5" r="1.5" transform="translate(693 1533)" fill="#e6e6e6"/>
    </g>
    <g transform="translate(-667 -1457)">
      <circle id="Ellipse_19-125" data-name="Ellipse 19" cx="1.5" cy="1.5" r="1.5" transform="translate(693 1533)" fill="#e6e6e6"/>
    </g>
    <g transform="translate(-642 -1457)">
      <circle id="Ellipse_19-126" data-name="Ellipse 19" cx="1.5" cy="1.5" r="1.5" transform="translate(693 1533)" fill="#e6e6e6"/>
    </g>
    <g transform="translate(-617 -1457)">
      <circle id="Ellipse_19-127" data-name="Ellipse 19" cx="1.5" cy="1.5" r="1.5" transform="translate(693 1533)" fill="#e6e6e6"/>
    </g>
    <g transform="translate(-592 -1457)">
      <circle id="Ellipse_19-128" data-name="Ellipse 19" cx="1.5" cy="1.5" r="1.5" transform="translate(693 1533)" fill="#e6e6e6"/>
    </g>
    <g transform="translate(-567 -1457)">
      <circle id="Ellipse_19-129" data-name="Ellipse 19" cx="1.5" cy="1.5" r="1.5" transform="translate(693 1533)" fill="#e6e6e6"/>
    </g>
    <g transform="translate(-542 -1457)">
      <circle id="Ellipse_19-130" data-name="Ellipse 19" cx="1.5" cy="1.5" r="1.5" transform="translate(693 1533)" fill="#e6e6e6"/>
    </g>
    <g transform="translate(-517 -1457)">
      <circle id="Ellipse_19-131" data-name="Ellipse 19" cx="1.5" cy="1.5" r="1.5" transform="translate(693 1533)" fill="#e6e6e6"/>
    </g>
    <g transform="translate(-492 -1457)">
      <circle id="Ellipse_19-132" data-name="Ellipse 19" cx="1.5" cy="1.5" r="1.5" transform="translate(693 1533)" fill="#e6e6e6"/>
    </g>
    <g transform="translate(-467 -1457)">
      <circle id="Ellipse_19-133" data-name="Ellipse 19" cx="1.5" cy="1.5" r="1.5" transform="translate(693 1533)" fill="#e6e6e6"/>
    </g>
    <g transform="translate(-442 -1457)">
      <circle id="Ellipse_19-134" data-name="Ellipse 19" cx="1.5" cy="1.5" r="1.5" transform="translate(693 1533)" fill="#e6e6e6"/>
    </g>
    <g transform="translate(-417 -1457)">
      <circle id="Ellipse_19-135" data-name="Ellipse 19" cx="1.5" cy="1.5" r="1.5" transform="translate(693 1533)" fill="#e6e6e6"/>
    </g>
    <g transform="translate(-392 -1457)">
      <circle id="Ellipse_19-136" data-name="Ellipse 19" cx="1.5" cy="1.5" r="1.5" transform="translate(693 1533)" fill="#e6e6e6"/>
    </g>
    <g transform="translate(-367 -1457)">
      <circle id="Ellipse_19-137" data-name="Ellipse 19" cx="1.5" cy="1.5" r="1.5" transform="translate(693 1533)" fill="#e6e6e6"/>
    </g>
    <g transform="translate(-342 -1457)">
      <circle id="Ellipse_19-138" data-name="Ellipse 19" cx="1.5" cy="1.5" r="1.5" transform="translate(693 1533)" fill="#e6e6e6"/>
    </g>
    <g transform="translate(-317 -1457)">
      <circle id="Ellipse_19-139" data-name="Ellipse 19" cx="1.5" cy="1.5" r="1.5" transform="translate(693 1533)" fill="#e6e6e6"/>
    </g>
    <g transform="translate(-292 -1457)">
      <circle id="Ellipse_19-140" data-name="Ellipse 19" cx="1.5" cy="1.5" r="1.5" transform="translate(693 1533)" fill="#e6e6e6"/>
    </g>
    <g transform="translate(-692 -1432)">
      <circle id="Ellipse_19-141" data-name="Ellipse 19" cx="1.5" cy="1.5" r="1.5" transform="translate(693 1533)" fill="#e6e6e6"/>
    </g>
    <g transform="translate(-667 -1432)">
      <circle id="Ellipse_19-142" data-name="Ellipse 19" cx="1.5" cy="1.5" r="1.5" transform="translate(693 1533)" fill="#e6e6e6"/>
    </g>
    <g transform="translate(-642 -1432)">
      <circle id="Ellipse_19-143" data-name="Ellipse 19" cx="1.5" cy="1.5" r="1.5" transform="translate(693 1533)" fill="#e6e6e6"/>
    </g>
    <g transform="translate(-617 -1432)">
      <circle id="Ellipse_19-144" data-name="Ellipse 19" cx="1.5" cy="1.5" r="1.5" transform="translate(693 1533)" fill="#e6e6e6"/>
    </g>
    <g transform="translate(-592 -1432)">
      <circle id="Ellipse_19-145" data-name="Ellipse 19" cx="1.5" cy="1.5" r="1.5" transform="translate(693 1533)" fill="#e6e6e6"/>
    </g>
    <g transform="translate(-567 -1432)">
      <circle id="Ellipse_19-146" data-name="Ellipse 19" cx="1.5" cy="1.5" r="1.5" transform="translate(693 1533)" fill="#e6e6e6"/>
    </g>
    <g transform="translate(-542 -1432)">
      <circle id="Ellipse_19-147" data-name="Ellipse 19" cx="1.5" cy="1.5" r="1.5" transform="translate(693 1533)" fill="#e6e6e6"/>
    </g>
    <g transform="translate(-517 -1432)">
      <circle id="Ellipse_19-148" data-name="Ellipse 19" cx="1.5" cy="1.5" r="1.5" transform="translate(693 1533)" fill="#e6e6e6"/>
    </g>
    <g transform="translate(-492 -1432)">
      <circle id="Ellipse_19-149" data-name="Ellipse 19" cx="1.5" cy="1.5" r="1.5" transform="translate(693 1533)" fill="#e6e6e6"/>
    </g>
    <g transform="translate(-467 -1432)">
      <circle id="Ellipse_19-150" data-name="Ellipse 19" cx="1.5" cy="1.5" r="1.5" transform="translate(693 1533)" fill="#e6e6e6"/>
    </g>
    <g transform="translate(-442 -1432)">
      <circle id="Ellipse_19-151" data-name="Ellipse 19" cx="1.5" cy="1.5" r="1.5" transform="translate(693 1533)" fill="#e6e6e6"/>
    </g>
    <g transform="translate(-417 -1432)">
      <circle id="Ellipse_19-152" data-name="Ellipse 19" cx="1.5" cy="1.5" r="1.5" transform="translate(693 1533)" fill="#e6e6e6"/>
    </g>
    <g transform="translate(-392 -1432)">
      <circle id="Ellipse_19-153" data-name="Ellipse 19" cx="1.5" cy="1.5" r="1.5" transform="translate(693 1533)" fill="#e6e6e6"/>
    </g>
    <g transform="translate(-367 -1432)">
      <circle id="Ellipse_19-154" data-name="Ellipse 19" cx="1.5" cy="1.5" r="1.5" transform="translate(693 1533)" fill="#e6e6e6"/>
    </g>
    <g transform="translate(-342 -1432)">
      <circle id="Ellipse_19-155" data-name="Ellipse 19" cx="1.5" cy="1.5" r="1.5" transform="translate(693 1533)" fill="#e6e6e6"/>
    </g>
    <g transform="translate(-317 -1432)">
      <circle id="Ellipse_19-156" data-name="Ellipse 19" cx="1.5" cy="1.5" r="1.5" transform="translate(693 1533)" fill="#e6e6e6"/>
    </g>
    <g transform="translate(-292 -1432)">
      <circle id="Ellipse_19-157" data-name="Ellipse 19" cx="1.5" cy="1.5" r="1.5" transform="translate(693 1533)" fill="#e6e6e6"/>
    </g>
    <g transform="translate(-692 -1407)">
      <circle id="Ellipse_19-158" data-name="Ellipse 19" cx="1.5" cy="1.5" r="1.5" transform="translate(693 1533)" fill="#e6e6e6"/>
    </g>
    <g transform="translate(-667 -1407)">
      <circle id="Ellipse_19-159" data-name="Ellipse 19" cx="1.5" cy="1.5" r="1.5" transform="translate(693 1533)" fill="#e6e6e6"/>
    </g>
    <g transform="translate(-642 -1407)">
      <circle id="Ellipse_19-160" data-name="Ellipse 19" cx="1.5" cy="1.5" r="1.5" transform="translate(693 1533)" fill="#e6e6e6"/>
    </g>
    <g transform="translate(-617 -1407)">
      <circle id="Ellipse_19-161" data-name="Ellipse 19" cx="1.5" cy="1.5" r="1.5" transform="translate(693 1533)" fill="#e6e6e6"/>
    </g>
    <g transform="translate(-592 -1407)">
      <circle id="Ellipse_19-162" data-name="Ellipse 19" cx="1.5" cy="1.5" r="1.5" transform="translate(693 1533)" fill="#e6e6e6"/>
    </g>
    <g transform="translate(-567 -1407)">
      <circle id="Ellipse_19-163" data-name="Ellipse 19" cx="1.5" cy="1.5" r="1.5" transform="translate(693 1533)" fill="#e6e6e6"/>
    </g>
    <g transform="translate(-542 -1407)">
      <circle id="Ellipse_19-164" data-name="Ellipse 19" cx="1.5" cy="1.5" r="1.5" transform="translate(693 1533)" fill="#e6e6e6"/>
    </g>
    <g transform="translate(-517 -1407)">
      <circle id="Ellipse_19-165" data-name="Ellipse 19" cx="1.5" cy="1.5" r="1.5" transform="translate(693 1533)" fill="#e6e6e6"/>
    </g>
    <g transform="translate(-492 -1407)">
      <circle id="Ellipse_19-166" data-name="Ellipse 19" cx="1.5" cy="1.5" r="1.5" transform="translate(693 1533)" fill="#e6e6e6"/>
    </g>
    <g transform="translate(-467 -1407)">
      <circle id="Ellipse_19-167" data-name="Ellipse 19" cx="1.5" cy="1.5" r="1.5" transform="translate(693 1533)" fill="#e6e6e6"/>
    </g>
    <g transform="translate(-442 -1407)">
      <circle id="Ellipse_19-168" data-name="Ellipse 19" cx="1.5" cy="1.5" r="1.5" transform="translate(693 1533)" fill="#e6e6e6"/>
    </g>
    <g transform="translate(-417 -1407)">
      <circle id="Ellipse_19-169" data-name="Ellipse 19" cx="1.5" cy="1.5" r="1.5" transform="translate(693 1533)" fill="#e6e6e6"/>
    </g>
    <g transform="translate(-392 -1407)">
      <circle id="Ellipse_19-170" data-name="Ellipse 19" cx="1.5" cy="1.5" r="1.5" transform="translate(693 1533)" fill="#e6e6e6"/>
    </g>
    <g transform="translate(-367 -1407)">
      <circle id="Ellipse_19-171" data-name="Ellipse 19" cx="1.5" cy="1.5" r="1.5" transform="translate(693 1533)" fill="#e6e6e6"/>
    </g>
    <g transform="translate(-342 -1407)">
      <circle id="Ellipse_19-172" data-name="Ellipse 19" cx="1.5" cy="1.5" r="1.5" transform="translate(693 1533)" fill="#e6e6e6"/>
    </g>
    <g transform="translate(-317 -1407)">
      <circle id="Ellipse_19-173" data-name="Ellipse 19" cx="1.5" cy="1.5" r="1.5" transform="translate(693 1533)" fill="#e6e6e6"/>
    </g>
    <g transform="translate(-292 -1407)">
      <circle id="Ellipse_19-174" data-name="Ellipse 19" cx="1.5" cy="1.5" r="1.5" transform="translate(693 1533)" fill="#e6e6e6"/>
    </g>
  </g>
</svg>
