<svg xmlns="http://www.w3.org/2000/svg" width="171.868" height="30" viewBox="0 0 171.868 30">
  <g id="logo" transform="translate(-95 -107.059)">
    <path id="Path_711" data-name="Path 711" d="M230.984,120.817a8.934,8.934,0,0,0,2.3.973l1.8.547c.2.066.529.18.961.342a4.025,4.025,0,0,1,.925.445c.18.138.409.324.7.559a2.362,2.362,0,0,1,.6.787,5.69,5.69,0,0,1,.451,2.3,5.45,5.45,0,0,1-1.49,4.026,5.666,5.666,0,0,1-4.206,1.508,12.257,12.257,0,0,1-2.884-.373,20,20,0,0,1-3.2-1.118l.8-2.7a14.678,14.678,0,0,0,5.54,1.436,2.433,2.433,0,0,0,1.676-.517,2.145,2.145,0,0,0,.565-1.664,1.845,1.845,0,0,0-.739-1.646,6.387,6.387,0,0,0-1.73-.805c-.667-.2-1.033-.312-1.106-.342l-.655-.216c-.361-.114-.7-.228-1.021-.342a9.614,9.614,0,0,1-1.238-.571,3.238,3.238,0,0,1-1.094-.859,4.386,4.386,0,0,1-.913-2.878,4.656,4.656,0,0,1,1.436-3.6,5.909,5.909,0,0,1,4.176-1.334,16.222,16.222,0,0,1,5.377.919l-.511,2.638a21.078,21.078,0,0,0-4.729-.721c-1.2,0-1.911.162-2.187.475a1.959,1.959,0,0,0-.409,1.334,1.61,1.61,0,0,0,.8,1.406Zm-10.322.445c0-.114,0-.367-.03-.757a6.655,6.655,0,0,0-.054-.715c0-.09-.054-.276-.1-.6a1.244,1.244,0,0,0-.168-.547,1.94,1.94,0,0,1-.258-.385.709.709,0,0,0-.354-.361,2.655,2.655,0,0,1-.457-.21,3.822,3.822,0,0,0-1.514-.2,5.714,5.714,0,0,0-1.851.258,2.037,2.037,0,0,0-1.105.919,3.977,3.977,0,0,0-.5,1.43,20.429,20.429,0,0,0-.144,2.151l6.537-.132Zm-6.561,3.5q0,3.178,1.075,4.206a2.77,2.77,0,0,0,1.9.631,15.166,15.166,0,0,0,4.861-.865l.877-.312.8,2.523a13.1,13.1,0,0,1-5.852,1.376q-7.1,0-7.1-8.76t7.042-8.754a5.944,5.944,0,0,1,4.729,1.8q1.574,1.8,1.592,6.1v2.061Zm-5.912-6.765c-.469-.036-.9-.054-1.274-.054a6.525,6.525,0,0,0-3.893,1.262v12.726h-3.293V115.157H201.8a10.215,10.215,0,0,0,.427,1.748h.174a11.9,11.9,0,0,1,2.373-1.478,5.438,5.438,0,0,1,2.169-.643,4.806,4.806,0,0,1,1.508.228Zm-13.861,13.933h-3.293V115.157h3.293Zm-3.551-19V110.23h3.809v2.692Zm-8.267,11.266a22.632,22.632,0,0,0-3.148-.174,3.944,3.944,0,0,0-2.475.487,3.313,3.313,0,0,0-.6,2.193,4.11,4.11,0,0,0,.409,2.205,1.508,1.508,0,0,0,1.334.6,7.246,7.246,0,0,0,2.049-.33,16.689,16.689,0,0,0,2.451-.955Zm1.2,7.739-.457-1.8h-.138a7.888,7.888,0,0,1-.841.6,13.044,13.044,0,0,1-1.959.961,6.874,6.874,0,0,1-2.6.6,4.59,4.59,0,0,1-3.5-1.394,5.777,5.777,0,0,1-1.322-4.152,4.6,4.6,0,0,1,1.8-4.032,8.887,8.887,0,0,1,5.131-1.262l2.722.03q0-2.776-.439-3.365a2.049,2.049,0,0,0-1.718-.6,14.685,14.685,0,0,0-2.854.318,21.683,21.683,0,0,0-3.335.973l-.883-2.439,1.063-.445a20.669,20.669,0,0,1,2.487-.715,14.2,14.2,0,0,1,3.323-.445q5.654,0,5.654,6.189V131.9Z" transform="translate(-31.091 -1.266)" fill="#0b0b0b"/>
    <path id="Path_712" data-name="Path 712" d="M122.47,125.283a8.249,8.249,0,0,1-1.658,1.232,8.112,8.112,0,0,1,.294,2.049,4.7,4.7,0,0,1,0,.5l.066-.06a6.152,6.152,0,0,0,1.652-4v-.09Zm.342-6.213a6.044,6.044,0,0,0-1.646-3.978l-.06-.066v.5a8.593,8.593,0,0,1-.294,2.037,8.3,8.3,0,0,1,1.652,1.238c.12.114.234.234.348.354a.456.456,0,0,0,0-.09Zm-2.8.6-.979,2.373.985,2.4a6.213,6.213,0,0,0,2.139-2.4,6.008,6.008,0,0,0-1.1-1.526,6.31,6.31,0,0,0-1.045-.847Zm-1.412-6.207a6.146,6.146,0,0,0-1.869-.306h-.054a5.7,5.7,0,0,0-1.274.138l.985,2.4,2.4.985a5.8,5.8,0,0,0,.138-1.328A5.925,5.925,0,0,0,118.6,113.465Zm-1.634-2.578a6.1,6.1,0,0,0-1.839-1.2,7.06,7.06,0,0,0-2.319-.541c.156.138.3.282.445.427a8.478,8.478,0,0,1,1.238,1.652,8.3,8.3,0,0,1,2.043-.294h.5Zm-5.407.126a5.96,5.96,0,0,0-1.538-1.106,6.165,6.165,0,0,0-1.532,1.1,6.069,6.069,0,0,0-.841,1.039l2.373.985,2.4-.985a5.8,5.8,0,0,0-.871-1.033Zm-4.843,3.04-1.334,3.226-.306.192-3.04,1.262,1.334,3.22-.072.354-1.262,3.046,3.22,1.334.2.3,1.262,3.046,3.22-1.334.348.072,3.046,1.262,1.334-3.22.294-.2,3.052-1.262-1.334-3.226.072-.348,1.262-3.046-3.226-1.334-.192-.306-1.262-3.04-3.22,1.34-.354-.078Zm-1.8-4.35a6.008,6.008,0,0,0-1.839,1.2l-.066.06h.5a8.412,8.412,0,0,1,2.043.294,8.3,8.3,0,0,1,1.238-1.652c.114-.12.228-.234.348-.342a6.062,6.062,0,0,0-2.229.439Zm-3.779,5.624a6.152,6.152,0,0,0,.138,1.328l2.4-.985.985-2.4a6.2,6.2,0,0,0-1.286-.138h-.042a6.111,6.111,0,0,0-1.863.306,6.375,6.375,0,0,0-.342,1.893Zm.3,15.3a6.009,6.009,0,0,0,1.869.306h0a6.424,6.424,0,0,0,1.328-.138l-.985-2.373-2.4-.985a6.212,6.212,0,0,0-.144,1.334,6.1,6.1,0,0,0,.33,1.857Zm-1.412-10.983a5.588,5.588,0,0,0-1.033.847,5.96,5.96,0,0,0-1.106,1.556,5.948,5.948,0,0,0,2.139,2.367l.985-2.367ZM98.929,115l-.066.072a6.243,6.243,0,0,0-1.2,1.839,6.177,6.177,0,0,0-.457,2.139v.1l.348-.36a8.412,8.412,0,0,1,1.652-1.2,8.412,8.412,0,0,1-.294-2.049c.012-.174.012-.342.018-.511Zm-1.712,9.992a6.159,6.159,0,0,0,1.646,3.984l.06.06v-.493a8.273,8.273,0,0,1,.294-2.049,8.159,8.159,0,0,1-1.652-1.232c-.12-.114-.234-.234-.348-.354Zm5.84,8.183a6.243,6.243,0,0,0,1.845,1.2,6.1,6.1,0,0,0,2.145.457h.1c-.126-.114-.246-.234-.367-.354a8.465,8.465,0,0,1-1.2-1.646,8.411,8.411,0,0,1-2.043.294h-.511Zm5.407-.114A6.333,6.333,0,0,0,110,134.163a6.386,6.386,0,0,0,1.532-1.106,6.307,6.307,0,0,0,.841-1.039l-2.355-.961-2.4.985a6.069,6.069,0,0,0,.865,1.039Zm6.645,1.3a6.224,6.224,0,0,0,1.839-1.2l.06-.066h-.318a8.947,8.947,0,0,1-2.217-.3,8.3,8.3,0,0,1-1.238,1.652c-.114.12-.234.234-.354.348a6.177,6.177,0,0,0,2.247-.409Zm3.773-5.624a5.834,5.834,0,0,0-.138-1.328l-2.4.985-.985,2.4a6.11,6.11,0,0,0,3.184-.162,6.044,6.044,0,0,0,.36-1.875Zm6.159-3.887a8.346,8.346,0,0,1-2.4,5.828,8.166,8.166,0,0,1-2.331,1.652,8.29,8.29,0,0,1-7.462,4.729h0a8.448,8.448,0,0,1-2.812-.475,8.268,8.268,0,0,1-2.776.475h-.036a8.153,8.153,0,0,1-3.142-.631,8.267,8.267,0,0,1-4.326-4.1,8.448,8.448,0,0,1-2.349-1.652,8.334,8.334,0,0,1-1.923-8.628,8.3,8.3,0,0,1,4.26-10.28,8.285,8.285,0,0,1,4.32-4.1,8.087,8.087,0,0,1,3.142-.6,8.3,8.3,0,0,1,2.812.475,8.3,8.3,0,0,1,10.28,4.26,8.117,8.117,0,0,1,2.325,1.652,8.316,8.316,0,0,1,1.935,8.6A8.513,8.513,0,0,1,125.041,124.85Zm138.527,5.81V120.4a8.1,8.1,0,0,0-.4-3.184,1.634,1.634,0,0,0-1.586-.745,7.4,7.4,0,0,0-1.8.276,17.371,17.371,0,0,0-2.4.847V130.66h-3.3v-21.7h3.3v6.008a13.218,13.218,0,0,1,5.365-1.466,3.447,3.447,0,0,1,3.172,1.532,8.855,8.855,0,0,1,.949,4.572v11.067Zm-18.151-14.42a3.183,3.183,0,0,0-2.325.691q-1.2,1.286-1.2,5.5t1.622,5.407a2.566,2.566,0,0,0,1.544.433,8.171,8.171,0,0,0,2.175-.348,22.756,22.756,0,0,0,2.758-1,24.238,24.238,0,0,0,.961,2.439l-.691.445a10.407,10.407,0,0,1-1.863.727,9.385,9.385,0,0,1-2.9.463,6.477,6.477,0,0,1-5.143-2.151c-1.25-1.436-1.875-3.647-1.875-6.651q0-4.987,2.271-6.964a8.015,8.015,0,0,1,5.407-1.748,17.712,17.712,0,0,1,4.38.547l-.373,2.608a39.373,39.373,0,0,0-4.759-.361Zm-13.663,3.725v-.757a6,6,0,0,0-.06-.715c0-.09-.048-.276-.1-.6a1.2,1.2,0,0,0-.174-.547,1.737,1.737,0,0,1-.252-.385.733.733,0,0,0-.354-.36,2.656,2.656,0,0,1-.457-.21,3.839,3.839,0,0,0-1.52-.2,5.678,5.678,0,0,0-1.845.258,2.049,2.049,0,0,0-1.112.919,3.971,3.971,0,0,0-.493,1.43,17.594,17.594,0,0,0-.144,2.151l6.5-.1Zm-6.561,3.5q0,3.178,1.081,4.206a2.758,2.758,0,0,0,1.9.631,15.135,15.135,0,0,0,4.855-.865l.883-.312.793,2.523a13.086,13.086,0,0,1-5.852,1.376q-7.084.036-7.084-8.748t7.048-8.754a5.944,5.944,0,0,1,4.729,1.8q1.574,1.8,1.55,6.122V123.5Zm-9.854-6.1v7.967a6.646,6.646,0,0,0,.24,2.367c.162.294.6.445,1.262.445l1.8-.09v2.668a9.938,9.938,0,0,1-2.241.228,4.2,4.2,0,0,1-3.311-1.2c-.709-.793-1.069-2.313-1.069-4.572v-7.841h-1.9v-2.061l2.043-.4.655-3.953h2.529v3.923h3.323v2.578Z" fill="#2db2fa"/>
  </g>
</svg>
