<svg id="Group_44" data-name="Group 44" xmlns="http://www.w3.org/2000/svg" width="21.986" height="24" viewBox="0 0 21.986 24">
  <g id="Group_43" data-name="Group 43" transform="translate(0)">
    <circle id="Ellipse_29" data-name="Ellipse 29" cx="1" cy="1" r="1" transform="translate(13.855 4.497)" fill="#2db2fa"/>
    <circle id="Ellipse_30" data-name="Ellipse 30" cx="1" cy="1" r="1" transform="translate(13.855 17.489)" fill="#2db2fa"/>
    <path id="Path_770" data-name="Path 770" d="M43.129,6.524c-.359-.781-1.272-1.743-3.587-1.888a.937.937,0,1,0-.118,1.871c1.069.067,1.8.359,2,.8a1.33,1.33,0,0,1,.168.625A6.08,6.08,0,0,1,40,10.731a24.839,24.839,0,0,0-5-3.481,29.76,29.76,0,0,0-5.25-2.132q.109-.293.228-.57c.72-1.674,1.645-2.673,2.472-2.673.685,0,1.287.67,1.671,1.232a.938.938,0,1,0,1.548-1.058A3.925,3.925,0,0,0,32.452,0C30.8,0,29.314,1.352,28.258,3.807q-.182.422-.342.877a12.261,12.261,0,0,0-3.234-.072l-.018,0a3.548,3.548,0,0,0-2.784,1.71,2.908,2.908,0,0,0-.349,1.351A4.787,4.787,0,0,0,22.143,9.9a.938.938,0,0,0,1.666-.861,3.033,3.033,0,0,1-.4-1.339,1.036,1.036,0,0,1,.126-.488,1.941,1.941,0,0,1,1.415-.743,10.615,10.615,0,0,1,2.439.036A24.22,24.22,0,0,0,26.78,12a25.251,25.251,0,0,0,.647,5.378q-.291.041-.573.068c-1.756.166-3.06-.144-3.4-.808a1.048,1.048,0,0,1-.093-.474,2.28,2.28,0,0,1,.16-.83.937.937,0,0,0-1.752-.668,4.142,4.142,0,0,0-.284,1.514,2.86,2.86,0,0,0,.3,1.319c.63,1.22,2.093,1.867,4.172,1.867q.512,0,1.073-.053.426-.04.871-.11a10.833,10.833,0,0,0,1.412,2.864A3.865,3.865,0,0,0,32.452,24a3.925,3.925,0,0,0,3.219-2.049.937.937,0,0,0-1.548-1.058c-.384.562-.986,1.232-1.671,1.232-.66,0-1.243-.626-1.615-1.152l-.018-.024a8.68,8.68,0,0,1-1.07-2.139,25.852,25.852,0,0,0,5.173-2.029A25.6,25.6,0,0,0,39.855,13.5a.937.937,0,0,0,.112-.117A5.107,5.107,0,0,1,41.452,16.3a1.112,1.112,0,0,1-.079.488,1.954,1.954,0,0,1-1.428.745.938.938,0,1,0,.3,1.852,3.548,3.548,0,0,0,2.785-1.71,2.867,2.867,0,0,0,.3-1.351,6.77,6.77,0,0,0-2.005-4.246c1.452-1.751,2.1-3,2.145-4.073A3.1,3.1,0,0,0,43.129,6.524Zm-13.915.39c.258.081.529.168.811.262l-.051.026q-.471.243-.929.5Q29.122,7.3,29.214,6.914ZM29.264,17q-.073-.332-.144-.687.387.223.782.436l.085.045Q29.622,16.906,29.264,17Zm6.841-3.061c-.651.415-1.336.809-2.045,1.175-.55.284-1.1.545-1.65.782-.542-.245-1.087-.513-1.622-.8-.7-.378-1.389-.787-2.037-1.214-.061-.609-.1-1.24-.1-1.883s.025-1.292.074-1.919c.669-.429,1.376-.836,2.1-1.213.534-.276,1.077-.534,1.618-.768.546.238,1.1.5,1.662.8.691.371,1.36.77,1.993,1.188.052.609.094,1.253.094,1.909S36.158,13.322,36.106,13.94Zm2.523-1.862c-.181.156-.368.311-.56.465.005-.179.009-.36.009-.543,0-.155,0-.309-.007-.461q.307.254.592.512Z" transform="translate(-21.483 0)" fill="#2db2fa"/>
    <circle id="Ellipse_31" data-name="Ellipse 31" cx="1" cy="1" r="1" transform="translate(1.863 11.493)" fill="#2db2fa"/>
  </g>
</svg>
