<svg xmlns="http://www.w3.org/2000/svg" width="24.002" height="24.127" viewBox="0 0 24.002 24.127">
  <g id="Слой_1" data-name="Слой 1" transform="translate(0.002 0.127)">
    <path id="Path_765" data-name="Path 765" d="M5.49,24a1,1,0,0,1-.76-1.17c0-.7,0-1.41.06-2.1A2.76,2.76,0,0,1,7.5,18.38h3.55V14.5a.28.28,0,0,0-.23-.31,3.24,3.24,0,0,1-2.12-3V.91a.94.94,0,1,1,1.87,0V10.98a1.41,1.41,0,1,0,2.81,0q0-5,0-10a2,2,0,0,1,0-.35.94.94,0,0,1,1.85.2V11a3.28,3.28,0,0,1-2.21,3.26c-.05,0-.13.11-.13.17v4h3.48a2.81,2.81,0,0,1,2.84,2.81v1.64a1.06,1.06,0,0,1-.7,1.12Zm11.9-1.88V21.08a.92.92,0,0,0-.93-.83H7.52a.85.85,0,0,0-.86.69,7.72,7.72,0,0,0,0,1.18Z" fill="#2db2fa"/>
    <path id="Path_766" data-name="Path 766" d="M24,7.55c-.07.46-.12.93-.22,1.38a9.2,9.2,0,0,1-2.46,4.55A.94.94,0,1,1,20,12.2a7.18,7.18,0,0,0,1.68-2.63,7.4,7.4,0,0,0-1.57-7.82,1.11,1.11,0,0,1-.4-.89.89.89,0,0,1,.62-.8.9.9,0,0,1,1,.24A9.43,9.43,0,0,1,24,6.1a1.13,1.13,0,0,0,0,.18Z" fill="#2db2fa"/>
    <path id="Path_767" data-name="Path 767" d="M0,6.75A9.24,9.24,0,0,1,2.7.33.94.94,0,0,1,4.06.26a.92.92,0,0,1,0,1.36A7.36,7.36,0,0,0,2,5.82a7.36,7.36,0,0,0,2,6.22l.19.2a.94.94,0,0,1,0,1.33.89.89,0,0,1-1.3,0A15.47,15.47,0,0,1,1.33,11.7,9.19,9.19,0,0,1,0,6.75Z" fill="#2db2fa"/>
    <path id="Path_768" data-name="Path 768" d="M20.39,7a5.73,5.73,0,0,1-1.65,4,.93.93,0,0,1-1.36.08,1,1,0,0,1,0-1.36,3.91,3.91,0,0,0,0-5.5,1,1,0,0,1,0-1.38.94.94,0,0,1,1.37.1A5.77,5.77,0,0,1,20.39,7Z" fill="#2db2fa"/>
    <path id="Path_769" data-name="Path 769" d="M3.61,7A5.76,5.76,0,0,1,5.26,2.94a.93.93,0,0,1,1.35-.09.94.94,0,0,1,0,1.38,3.92,3.92,0,0,0,0,5.48.93.93,0,0,1,0,1.37A.92.92,0,0,1,5.25,11,5.77,5.77,0,0,1,3.61,7Z" fill="#2db2fa"/>
  </g>
</svg>
