<svg id="icon_mini_patented" data-name="icon mini patented" xmlns="http://www.w3.org/2000/svg" width="24" height="24" viewBox="0 0 24 24">
  <g id="Group_107" data-name="Group 107">
    <path id="Path_845" data-name="Path 845" d="M159.313,233a4.31,4.31,0,0,0-2.859,7.538v4.6a.937.937,0,0,0,1.3.863l1.508-.64,1.508.641a.937.937,0,0,0,1.3-.863v-4.522A4.311,4.311,0,0,0,159.313,233Zm.891,10.724-.571-.243a.938.938,0,0,0-.733,0l-.571.242v-2.212a4.326,4.326,0,0,0,1.875.021Zm-.891-3.974a2.438,2.438,0,1,1,2.438-2.437A2.44,2.44,0,0,1,159.313,239.75Z" transform="translate(-147.734 -222.078)" fill="#2db2fa"/>
    <path id="Path_846" data-name="Path 846" d="M23.063,14.255H19.781V3.012A3.016,3.016,0,0,0,16.769,0H3.75A3.754,3.754,0,0,0,0,3.75V5.667A.937.937,0,0,0,.937,6.6H3.281V17.3a3.741,3.741,0,0,0,2.312,3.464.938.938,0,0,0,.719-1.732A1.871,1.871,0,0,1,5.156,17.3V6.6h9.469a.937.937,0,0,0,.938-.937V3.012A1.139,1.139,0,0,1,16.7,1.875h.069a1.139,1.139,0,0,1,1.137,1.137V18.035a3,3,0,0,0,.224,1.137h-.974a.938.938,0,0,0,0,1.875h3.856A3.016,3.016,0,0,0,24,18.035V15.193A.937.937,0,0,0,23.063,14.255ZM13.687,3.012V4.729H1.875V3.75A1.877,1.877,0,0,1,3.75,1.875H13.91A3,3,0,0,0,13.687,3.012Zm8.438,15.022a1.139,1.139,0,0,1-1.137,1.137h-.069a1.139,1.139,0,0,1-1.137-1.137v-1.9h2.344Z" fill="#2db2fa"/>
  </g>
</svg>
