<svg xmlns="http://www.w3.org/2000/svg" width="24" height="24" viewBox="0 0 24 24">
  <path id="plus_1_" data-name="plus (1)" d="M12.938,24H11.063A2.816,2.816,0,0,1,8.25,21.188V15.7H2.813A2.816,2.816,0,0,1,0,12.891V11.016A2.816,2.816,0,0,1,2.813,8.2H8.25V2.813A2.816,2.816,0,0,1,11.063,0h1.875A2.816,2.816,0,0,1,15.75,2.813V8.2h5.438A2.816,2.816,0,0,1,24,11.016v1.875A2.816,2.816,0,0,1,21.188,15.7H15.75v.8a.938.938,0,0,1-1.875,0V14.766a.937.937,0,0,1,.938-.937h6.375a.939.939,0,0,0,.938-.937V11.016a.939.939,0,0,0-.937-.937H14.813a.937.937,0,0,1-.937-.937V2.813a.939.939,0,0,0-.937-.937H11.063a.939.939,0,0,0-.937.938V9.141a.937.937,0,0,1-.937.938H2.813a.939.939,0,0,0-.937.938v1.875a.939.939,0,0,0,.938.938H9.188a.937.937,0,0,1,.938.938v6.422a.939.939,0,0,0,.938.938h1.875a.939.939,0,0,0,.938-.937.938.938,0,0,1,1.875,0A2.816,2.816,0,0,1,12.938,24Zm0,0" fill="#2db2fa"/>
</svg>
