<svg id="Component_182_1" data-name="Component 182 – 1" xmlns="http://www.w3.org/2000/svg" width="17" height="26" viewBox="0 0 17 26">
  <g id="Rectangle_453" data-name="Rectangle 453" fill="#fff" stroke="#707070" stroke-width="1" opacity="0">
    <rect width="17" height="26" stroke="none"/>
    <rect x="0.5" y="0.5" width="16" height="25" fill="none"/>
  </g>
  <g id="star_4_" data-name="star (4)" transform="translate(-17 13.548)">
    <path id="Path_716" data-name="Path 716" d="M6.589.65l1.6,3.788,4.1.352a.323.323,0,0,1,.184.566L9.363,8.049l.931,4.006a.323.323,0,0,1-.481.349L6.292,10.281,2.77,12.4a.323.323,0,0,1-.481-.349l.931-4.006L.112,5.355A.323.323,0,0,1,.3,4.789l4.1-.352L5.994.65a.323.323,0,0,1,.595,0Z" transform="translate(19 -14)" fill="#2db2fa"/>
  </g>
  <g id="star_4_2" data-name="star (4)" transform="translate(1 13.548)">
    <path id="Path_716-2" data-name="Path 716" d="M6.589.65l1.6,3.788,4.1.352a.323.323,0,0,1,.184.566L9.363,8.049l.931,4.006a.323.323,0,0,1-.481.349L6.292,10.281,2.77,12.4a.323.323,0,0,1-.481-.349l.931-4.006L.112,5.355A.323.323,0,0,1,.3,4.789l4.1-.352L5.994.65a.323.323,0,0,1,.595,0Z" transform="translate(1)" fill="#e6e6e6"/>
  </g>
</svg>
